<svg class="service-logo" width="541" height="210" viewBox="0 0 541 210" fill="none" xmlns="http://www.w3.org/2000/svg">
            <g clip-path="url(#clip0)">
            <path d="M257.779 157.328C256.289 153.552 254.703 153.066 250.77 154.631C246.963 156.113 242.894 156.921 238.77 157.013C219.54 157.516 200.31 157.741 181.08 157.912C177.715 157.912 176.205 158.982 175.686 162.137C174.725 167.873 173.975 173.717 172.109 179.219C165.235 199.473 141.86 210.828 125.255 208.958C126.13 202.575 126.909 196.372 127.842 190.267C129.207 181.277 130.64 172.287 132.14 163.297C132.841 159.081 130.313 158.721 126.765 158.802C90.5545 159.198 54.3378 159.536 18.1148 159.818C16.3564 159.896 14.5941 159.805 12.8553 159.548C4.02873 157.921 1.9038 154.397 0.230787 144.265C-1.0384 136.57 1.63458 131.859 7.67283 126.725C45.5561 94.5588 82.949 62.0325 120.457 29.5782C130.688 20.732 140.745 11.6969 151.12 3.00346C153.231 1.31632 155.875 0.321724 158.648 0.171579C172.263 -0.107115 185.859 0.000766642 200.176 0.000766642C199.829 3.54287 199.676 6.72537 199.214 9.88989C195.157 35.9612 190.993 62.0325 186.926 88.1039C185.003 100.627 183.176 113.168 181.282 125.701C180.917 128.074 181.282 130.196 184.301 130.196C204.608 130.276 224.906 130.196 246.635 130.196L257.779 157.328ZM150.774 45.212L53.8923 130.726C54.6133 130.951 55.353 131.119 56.1038 131.229C81.6991 130.96 107.291 130.693 132.88 130.429C136.409 130.429 137.543 128.631 137.966 125.709C139.745 113.636 141.553 101.562 143.476 89.5153C145.793 75.0053 148.245 60.5132 150.774 45.212Z" fill="white"/>
            <path d="M215.319 66.2571L272.144 209.173H282.884L341.969 66.2571H327.19L283.452 177.069L235.261 66.2571H215.319Z" fill="#FD6B60"/>
            <path d="M328 161.926C332.262 161.286 336.575 160.977 340.894 161.001C347.516 161.001 352.363 162.419 355.452 164.964C356.94 166.232 358.115 167.776 358.898 169.495C359.682 171.213 360.055 173.066 359.993 174.927C359.993 179.238 358.606 182.633 355.988 185.111C352.363 188.573 346.665 190.347 340.117 190.347C338.307 190.397 336.498 190.255 334.724 189.923V209H328.028L328 161.926ZM334.697 184.89C336.516 185.269 338.381 185.438 340.246 185.391C348.33 185.391 353.26 181.716 353.26 175.284C353.26 168.851 348.33 165.881 341.014 165.881C338.895 165.828 336.776 165.993 334.697 166.373V184.89Z" fill="white"/>
            <path d="M376 161H382.785V203.801H405V209H376V161Z" fill="white"/>
            <path d="M423.73 161V189.61C423.73 200.346 428.853 204.924 435.729 204.924C443.303 204.924 448.27 200.2 448.27 189.61V161H455V189.18C455 203.988 446.664 210 435.5 210C424.951 210 417 204.417 417 189.387V161H423.73Z" fill="white"/>
            <path d="M473.756 201.599C477.303 203.67 481.393 204.766 485.565 204.765C492.343 204.765 496.304 201.383 496.304 196.502C496.304 192.051 493.56 189.395 486.636 186.954C478.257 184.073 473.07 179.907 473.07 173.153C473.07 165.606 479.702 160 489.682 160C494.859 160 498.747 161.156 500.951 162.372L499.122 167.478C496.172 165.908 492.83 165.113 489.444 165.175C482.437 165.175 479.766 169.125 479.766 172.429C479.766 176.957 482.894 179.182 489.974 181.77C498.664 184.927 503 188.877 503 195.993C503 203.462 497.21 210 485.099 210C480.15 210 474.735 208.56 472 206.835L473.756 201.599Z" fill="white"/>
            <path d="M525.327 112.97H514.809V152.122H525.327V112.97Z" fill="#FD6B60"/>
            <path d="M541 137.468V127.633H499.126V137.468H541Z" fill="#FD6B60"/>
            <path d="M292.711 112.484L274.086 120.98V103.989L292.711 112.484Z" fill="white"/>
            </g>
            <defs>
            <clipPath id="clip0">
            <rect width="541" height="210" fill="white"/>
            </clipPath>
            </defs>
            </svg>