<svg class="m-0 p-0" width="100" height="100" viewBox="0 0 100 50" fill="none" xmlns="http://www.w3.org/2000/svg">
  <g clip-path="url(#clip0)">
  <path d="M74.4222 48.2493C73.9949 47.0914 73.54 46.9425 72.4124 47.4222C71.3207 47.8769 70.154 48.1246 68.9717 48.1528C63.4578 48.3072 57.9438 48.3762 52.4299 48.4285C51.465 48.4285 51.0321 48.7566 50.8833 49.7243C50.6076 51.4833 50.3925 53.2753 49.8577 54.9626C47.8864 61.174 41.1843 64.6561 36.423 64.0826C36.6739 62.1252 36.8972 60.2228 37.1646 58.3509C37.5561 55.5939 37.9669 52.8369 38.397 50.08C38.5982 48.7869 37.8731 48.6767 36.8558 48.7015C26.4731 48.8228 16.0885 48.9266 5.70212 49.013C5.19793 49.0368 4.69263 49.0091 4.19407 48.9303C1.66317 48.4313 1.05388 47.3506 0.574171 44.2435C0.210252 41.8835 0.976688 40.4388 2.70806 38.8646C13.5705 29.0002 24.2923 19.0255 35.0472 9.07282C37.9807 6.35996 40.8644 3.58921 43.8392 0.923221C44.4447 0.405828 45.2028 0.10082 45.9979 0.0547757C49.9018 -0.0306903 53.8001 0.00239331 57.9052 0.00239331C57.806 1.08864 57.7619 2.06461 57.6295 3.03506C56.4661 11.0303 55.2723 19.0255 54.1061 27.0207C53.5547 30.8611 53.0309 34.7071 52.4878 38.5503C52.383 39.2782 52.4878 39.9288 53.3535 39.9288C59.1762 39.9536 64.9961 39.9288 71.2269 39.9288L74.4222 48.2493ZM43.74 13.8672L15.9608 40.0915C16.1675 40.1605 16.3796 40.2121 16.5949 40.2459C23.9339 40.1631 31.272 40.0814 38.6092 40.0005C39.6211 40.0005 39.9464 39.4491 40.0677 38.5531C40.5777 34.8505 41.096 31.1479 41.6474 27.4535C42.3119 23.0038 43.0149 18.5595 43.74 13.8672Z" fill="#2C3365"/>
  <path d="M62.2395 20.3193L78.5332 64.1469H81.6127L98.5543 20.3193H94.3168L81.7754 54.3017L67.9574 20.3193H62.2395Z" fill="#FE6B60"/>
  <path d="M84.4303 34.4955L79.0901 37.1008V31.8901L84.4303 34.4955Z" fill="#2C3365"/>
  </g>
  <defs>
  <clipPath id="clip0">
  <rect width="155.123" height="64.4" fill="white" transform="translate(0.5)"/>
  </clipPath>
  </defs>
  </svg>