<svg id="Layer_1" data-name="Layer 1" xmlns="http://www.w3.org/2000/svg" viewBox="0 0 595.28 595.28"><defs><style>.cls-1{fill:#2c3365;}.cls-11,.cls-2,.cls-4{fill:none;}.cls-10,.cls-11,.cls-2{stroke:#fff;}.cls-10,.cls-11,.cls-12,.cls-2,.cls-4{stroke-miterlimit:10;}.cls-2{stroke-width:3px;}.cls-3{fill:#fd6b60;}.cls-4{stroke:#2c3365;stroke-width:4px;}.cls-5,.cls-9{font-size:14px;}.cls-10,.cls-12,.cls-5,.cls-7,.cls-8,.cls-9{fill:#fff;}.cls-5,.cls-8{font-family:Poppins-Medium, Poppins;font-weight:500;}.cls-6,.cls-8{font-size:10px;}.cls-9{font-family:Poppins-Bold, Poppins;font-weight:700;}.cls-10,.cls-12{stroke-width:0.1px;}.cls-12{stroke:#fd6b60;}</style></defs><rect class="cls-1" x="-15.84" y="-3.75" width="630.14" height="607.01"/><circle class="cls-2" cx="297.64" cy="298.15" r="233.65"/><polygon class="cls-1" points="90.81 151.68 114.11 168.74 168.46 113.33 149.75 94.27 90.81 151.68"/><polygon class="cls-1" points="454.85 100.92 439.74 117.95 479.78 164.37 496.15 151.07 454.85 100.92"/><rect class="cls-1" x="287.4" y="48.62" width="20.47" height="499.06" transform="translate(-0.52 595.79) rotate(-90)"/><circle class="cls-3" cx="296.95" cy="298.15" r="213.88"/><circle class="cls-1" cx="297.64" cy="298.15" r="53.65"/><rect class="cls-1" x="287.4" y="295.89" width="20.47" height="226.14"/><rect class="cls-1" x="287.4" y="77.42" width="20.47" height="226.14"/><rect class="cls-1" x="287.4" y="50.28" width="20.47" height="28.39"/><rect class="cls-1" x="283.14" y="72.64" width="20.47" height="185.47" transform="translate(-8.25 15.58) rotate(-3)"/><rect class="cls-1" x="208.82" y="264.11" width="20.47" height="225.26" transform="translate(107.56 798.03) rotate(-135)"/><line class="cls-4" x1="136.17" y1="138.1" x2="457.11" y2="459.04"/><line class="cls-4" x1="69.28" y1="299.57" x2="523.17" y2="299.57"/><line class="cls-4" x1="136.17" y1="461.04" x2="457.11" y2="140.09"/><text class="cls-5" transform="translate(330.2 144.94)">FIRST <tspan x="-9.89" y="16.8">MEETING</tspan></text><text class="cls-5" transform="translate(174.95 146.8)">ENGAGEMENT<tspan class="cls-6"><tspan x="28.33" y="16">- SALES</tspan><tspan x="34.29" y="28">- ROI</tspan></tspan></text><text class="cls-5" transform="translate(419.32 215.92)">THE<tspan x="-2.81" y="16.8">IDEA</tspan></text><text class="cls-5" transform="translate(113.16 232.72)">DISTRIBUTION</text><path class="cls-7" d="M423.92,324.42v1.31h-4.13v2.87H423v1.3h-3.22v4.25h-1.6v-9.73Z"/><path class="cls-7" d="M427,324.42v9.73h-1.6v-9.73Z"/><path class="cls-7" d="M430.69,332.87H434v1.28h-4.89v-9.73h1.6Z"/><path class="cls-7" d="M445.56,324.42v9.73H444v-6.66l-3,6.66h-1.11l-3-6.66v6.66h-1.6v-9.73H437l3.42,7.63,3.4-7.63Z"/><path class="cls-7" d="M393.77,345.52a2.64,2.64,0,0,1-1.12,1.07,4.15,4.15,0,0,1-2,.42h-1.76V351h-1.6v-9.73h3.36a4.21,4.21,0,0,1,1.9.39,2.68,2.68,0,0,1,1.16,1,2.84,2.84,0,0,1,.39,1.47A3,3,0,0,1,393.77,345.52Zm-1.74-.23a1.49,1.49,0,0,0,.45-1.17c0-1.06-.6-1.59-1.81-1.59h-1.76v3.17h1.76A1.93,1.93,0,0,0,392,345.29Z"/><path class="cls-7" d="M400.7,351l-2.24-3.89h-1.22V351h-1.6v-9.73H399a4.07,4.07,0,0,1,1.9.4,2.7,2.7,0,0,1,1.16,1.05,2.78,2.78,0,0,1,.39,1.47,2.88,2.88,0,0,1-.56,1.72,2.8,2.8,0,0,1-1.7,1.06l2.41,4Zm-3.46-5.16H399a1.83,1.83,0,0,0,1.35-.45,1.59,1.59,0,0,0,.46-1.2,1.57,1.57,0,0,0-.45-1.19,1.93,1.93,0,0,0-1.36-.42h-1.76Z"/><path class="cls-7" d="M406.43,350.41a4.73,4.73,0,0,1-1.81-1.77,5,5,0,0,1-.66-2.57,5,5,0,0,1,.66-2.56,4.83,4.83,0,0,1,1.81-1.78,5.3,5.3,0,0,1,5,0,4.73,4.73,0,0,1,1.8,1.78,5,5,0,0,1,.66,2.56,5,5,0,0,1-.66,2.57,4.64,4.64,0,0,1-1.8,1.77,5.22,5.22,0,0,1-5,0Zm4.22-1.19a3,3,0,0,0,1.18-1.25,4,4,0,0,0,.43-1.9,3.93,3.93,0,0,0-.43-1.89,3,3,0,0,0-1.18-1.25,3.66,3.66,0,0,0-3.44,0,3.05,3.05,0,0,0-1.19,1.25,4.05,4.05,0,0,0-.42,1.89A4.12,4.12,0,0,0,406,348a3.05,3.05,0,0,0,1.19,1.25,3.51,3.51,0,0,0,3.44,0Z"/><path class="cls-7" d="M421.37,341.82a4.19,4.19,0,0,1,1.8,1.71,5.05,5.05,0,0,1,.64,2.59,5,5,0,0,1-.64,2.58,4.1,4.1,0,0,1-1.8,1.67,6,6,0,0,1-2.73.58h-3.17v-9.73h3.17A5.91,5.91,0,0,1,421.37,341.82Zm-.11,6.91a3.56,3.56,0,0,0,.91-2.61,3.64,3.64,0,0,0-.91-2.64,3.44,3.44,0,0,0-2.62-1h-1.58v7.12h1.58A3.54,3.54,0,0,0,421.26,348.73Z"/><path class="cls-7" d="M427,341.22v6.21a2.32,2.32,0,0,0,3.83,1.66,2.19,2.19,0,0,0,.58-1.66v-6.21H433v6.18a3.67,3.67,0,0,1-.52,2,3.24,3.24,0,0,1-1.38,1.24,4.49,4.49,0,0,1-1.92.4,4.41,4.41,0,0,1-1.91-.4,3.16,3.16,0,0,1-1.37-1.24,3.84,3.84,0,0,1-.5-2v-6.18Z"/><path class="cls-7" d="M435.18,343.51a4.83,4.83,0,0,1,1.81-1.78,5.07,5.07,0,0,1,2.5-.63,5,5,0,0,1,2.76.76A4.33,4.33,0,0,1,444,344h-1.92a2.54,2.54,0,0,0-1-1.14,3,3,0,0,0-1.55-.38,3.35,3.35,0,0,0-1.72.43,3.05,3.05,0,0,0-1.19,1.25,4.46,4.46,0,0,0,0,3.78,3.05,3.05,0,0,0,1.19,1.25,3.36,3.36,0,0,0,1.72.44,3,3,0,0,0,1.55-.38,2.54,2.54,0,0,0,1-1.14H444a4.26,4.26,0,0,1-1.76,2.15,5.32,5.32,0,0,1-5.27.12,4.78,4.78,0,0,1-1.8-1.77,5.29,5.29,0,0,1,0-5.12Z"/><path class="cls-7" d="M452.16,341.22v1.31h-2.59V351H448v-8.42h-2.6v-1.31Z"/><path class="cls-7" d="M455.37,341.22V351h-1.6v-9.73Z"/><path class="cls-7" d="M459.4,350.41a4.64,4.64,0,0,1-1.8-1.77,5,5,0,0,1-.67-2.57,4.89,4.89,0,0,1,.67-2.56,4.73,4.73,0,0,1,1.8-1.78,5.32,5.32,0,0,1,5,0,4.73,4.73,0,0,1,1.8,1.78,5.07,5.07,0,0,1,.65,2.56,5.14,5.14,0,0,1-.65,2.57,4.64,4.64,0,0,1-1.8,1.77,5.24,5.24,0,0,1-5,0Zm4.23-1.19a3.1,3.1,0,0,0,1.18-1.25,4.12,4.12,0,0,0,.43-1.9,4.05,4.05,0,0,0-.43-1.89,3.1,3.1,0,0,0-1.18-1.25,3.42,3.42,0,0,0-1.73-.43,3.38,3.38,0,0,0-1.72.43,3,3,0,0,0-1.18,1.25,3.93,3.93,0,0,0-.43,1.89A4,4,0,0,0,459,348a3,3,0,0,0,1.18,1.25,3.29,3.29,0,0,0,1.72.45A3.33,3.33,0,0,0,463.63,349.22Z"/><path class="cls-7" d="M476.43,351h-1.59l-4.8-7.26V351h-1.6v-9.74H470l4.8,7.25v-7.25h1.59Z"/><text class="cls-5" transform="translate(341.45 410.62)">EDIT<tspan class="cls-6"><tspan x="-12.37" y="14">- 1st round</tspan></tspan></text><text class="cls-5" transform="translate(224.39 410.62)">EDIT<tspan class="cls-6"><tspan x="-15.61" y="14">- 2nd round</tspan></tspan></text><text class="cls-5" transform="translate(124.28 342.55)">DELIVERY</text><text class="cls-8" transform="translate(301.39 469) rotate(-90)">QUALITY CHECK</text><text class="cls-8" transform="translate(290.2 93.64) rotate(88.5)">QUALITY CHECK + NEXT STEP?</text><text class="cls-8" transform="translate(178.73 422.28) rotate(-45)">QUALITY CHECK</text><rect class="cls-1" x="411.46" y="172.68" width="20.47" height="250.94" transform="translate(123.54 719.85) rotate(-90)"/><text class="cls-8" transform="translate(399.27 301.9)">ACTION PLAN</text><text class="cls-9" transform="translate(271 328.17)">VALUES</text><text class="cls-9" transform="translate(282.64 272.96)">OUR</text><path class="cls-7" d="M531.13,290.23l4.19-7.24a.27.27,0,0,0-.23-.39h-8.36a.27.27,0,0,0-.23.39l4.19,7.24A.25.25,0,0,0,531.13,290.23Z"/><path class="cls-7" d="M64.06,301.22l-4.18,7.25a.25.25,0,0,0,.22.38h8.37a.25.25,0,0,0,.22-.38l-4.18-7.25A.26.26,0,0,0,64.06,301.22Z"/><path class="cls-7" d="M291.15,64.29l-7.24-4.19a.26.26,0,0,0-.39.22v8.37a.26.26,0,0,0,.39.22l7.24-4.18A.25.25,0,0,0,291.15,64.29Z"/><text class="cls-9" transform="translate(97.43 177.71) rotate(-58.58)"> </text><text class="cls-9" transform="translate(98.95 175.21) rotate(-57.85)"> </text><text class="cls-9" transform="matrix(0.54, -0.84, 0.84, 0.54, 100.51, 172.73)"> </text><text class="cls-9" transform="matrix(0.55, -0.83, 0.83, 0.55, 102.11, 170.25)"> </text><text class="cls-9" transform="matrix(0.56, -0.83, 0.83, 0.56, 103.74, 167.8)"> </text><text class="cls-9" transform="matrix(0.57, -0.82, 0.82, 0.57, 105.39, 165.39)"> </text><text class="cls-9" transform="matrix(0.58, -0.81, 0.81, 0.58, 107.09, 162.96)"> </text><text class="cls-9" transform="matrix(0.59, -0.8, 0.8, 0.59, 108.79, 160.6)"> </text><text class="cls-9" transform="matrix(0.62, -0.79, 0.79, 0.62, 110.48, 158.23)">V</text><text class="cls-9" transform="translate(116.78 150.26) rotate(-50.17)">I</text><text class="cls-9" transform="matrix(0.66, -0.75, 0.75, 0.66, 119.37, 147.11)">S</text><text class="cls-9" transform="matrix(0.68, -0.73, 0.73, 0.68, 125.02, 140.74)">I</text><text class="cls-9" transform="translate(127.78 137.72) rotate(-45.46)">B</text><text class="cls-9" transform="matrix(0.72, -0.69, 0.69, 0.72, 134.22, 131.22)">I</text><text class="cls-9" transform="matrix(0.74, -0.68, 0.68, 0.74, 137.15, 128.39)">L</text><text class="cls-9" transform="matrix(0.75, -0.66, 0.66, 0.75, 142.03, 123.92)">I</text><text class="cls-9" transform="translate(145.09 121.21) rotate(-39.74)">T</text><text class="cls-9" transform="translate(151.35 115.98) rotate(-37.61)">Y</text><text class="cls-9" transform="matrix(0.81, -0.59, 0.59, 0.81, 158.78, 110.31)"> </text><text class="cls-9" transform="matrix(0.82, -0.58, 0.58, 0.82, 161.15, 108.58)"> </text><text class="cls-9" transform="translate(163.54 106.88) rotate(-34.69)"> </text><text class="cls-9" transform="translate(165.96 105.21) rotate(-33.97)"> </text><text class="cls-9" transform="translate(168.39 103.57) rotate(-33.26)"> </text><text class="cls-9" transform="translate(170.84 101.96) rotate(-32.54)"> </text><text class="cls-9" transform="translate(173.32 100.38) rotate(-31.83)"> </text><text class="cls-9" transform="matrix(0.86, -0.52, 0.52, 0.86, 175.81, 98.83)"> </text><text class="cls-9" transform="matrix(0.86, -0.51, 0.51, 0.86, 178.33, 97.32)"> </text><text class="cls-9" transform="translate(180.86 95.83) rotate(-29.68)"> </text><text class="cls-9" transform="translate(183.42 94.37) rotate(-28.96)"> </text><text class="cls-9" transform="translate(185.99 92.95) rotate(-28.24)"> </text><text class="cls-9" transform="translate(188.58 91.56) rotate(-27.52)"> </text><text class="cls-9" transform="translate(191.19 90.2) rotate(-26.8)"> </text><text class="cls-9" transform="matrix(0.9, -0.44, 0.44, 0.9, 193.82, 88.87)"> </text><text class="cls-9" transform="translate(196.46 87.58) rotate(-25.36)"> </text><text class="cls-9" transform="translate(199.1 86.32) rotate(-24.64)"> </text><text class="cls-9" transform="matrix(0.91, -0.41, 0.41, 0.91, 201.76, 85.1)"> </text><text class="cls-9" transform="translate(204.46 83.91) rotate(-23.2)"> </text><text class="cls-9" transform="translate(207.17 82.74) rotate(-22.48)"> </text><text class="cls-9" transform="translate(209.88 81.62) rotate(-21.76)"> </text><text class="cls-9" transform="matrix(0.93, -0.36, 0.36, 0.93, 212.61, 80.53)"> </text><text class="cls-9" transform="translate(215.34 79.48) rotate(-20.32)"> </text><text class="cls-9" transform="translate(218.1 78.46) rotate(-19.6)"> </text><text class="cls-9" transform="translate(220.87 77.47) rotate(-18.87)"> </text><text class="cls-9" transform="translate(223.65 76.52) rotate(-18.15)"> </text><text class="cls-9" transform="translate(226.43 75.61) rotate(-17.43)"> </text><text class="cls-9" transform="matrix(0.96, -0.29, 0.29, 0.96, 229.24, 74.73)"> </text><text class="cls-9" transform="translate(232.07 73.88) rotate(-15.98)"> </text><text class="cls-9" transform="translate(234.89 73.07) rotate(-15.25)"> </text><text class="cls-9" transform="translate(237.71 72.3) rotate(-14.53)"> </text><text class="cls-9" transform="translate(240.56 71.56) rotate(-13.8)"> </text><text class="cls-9" transform="translate(243.41 70.86) rotate(-13.08)"> </text><text class="cls-9" transform="translate(246.28 70.2) rotate(-12.35)"> </text><text class="cls-9" transform="matrix(0.98, -0.2, 0.2, 0.98, 249.14, 69.57)"> </text><text class="cls-9" transform="matrix(0.98, -0.19, 0.19, 0.98, 252.01, 68.98)"> </text><text class="cls-9" transform="translate(254.91 68.42) rotate(-10.17)"> </text><text class="cls-9" transform="translate(257.8 67.9) rotate(-9.45)"> </text><text class="cls-9" transform="translate(260.7 67.42) rotate(-8.72)"> </text><text class="cls-9" transform="translate(263.59 66.97) rotate(-8)"> </text><text class="cls-9" transform="translate(266.49 66.57) rotate(-7.28)"> </text><text class="cls-9" transform="translate(269.42 66.19) rotate(-6.55)"> </text><text class="cls-9" transform="translate(272.34 65.86) rotate(-5.82)"> </text><text class="cls-9" transform="translate(275.27 65.56) rotate(-5.09)"> </text><text class="cls-9" transform="matrix(1, -0.08, 0.08, 1, 278.18, 65.3)"> </text><text class="cls-9" transform="translate(281.12 65.07) rotate(-3.64)"> </text><text class="cls-9" transform="translate(284.05 64.89) rotate(-2.92)"> </text><text class="cls-9" transform="translate(286.99 64.74) rotate(-2.2)"> </text><text class="cls-9" transform="translate(289.91 64.62) rotate(-1.48)"> </text><text class="cls-9" transform="matrix(1, -0.01, 0.01, 1, 292.84, 64.55)"> </text><text class="cls-9" transform="translate(295.8 64.51) rotate(-0.03)"> </text><text class="cls-9" transform="translate(298.72 64.51) rotate(0.69)"> </text><text class="cls-9" transform="translate(301.66 64.54) rotate(1.41)"> </text><text class="cls-9" transform="translate(304.62 64.62) rotate(2.13)"> </text><text class="cls-9" transform="matrix(1, 0.05, -0.05, 1, 307.53, 64.72)"> </text><text class="cls-9" transform="matrix(1, 0.06, -0.06, 1, 310.47, 64.87)"> </text><text class="cls-9" transform="translate(313.4 65.05) rotate(4.28)"> </text><text class="cls-9" transform="translate(316.33 65.27) rotate(4.99)"> </text><text class="cls-9" transform="translate(319.26 65.53) rotate(5.7)"> </text><text class="cls-9" transform="translate(322.18 65.82) rotate(6.41)"> </text><text class="cls-9" transform="translate(325.12 66.15) rotate(7.12)"> </text><text class="cls-9" transform="matrix(0.99, 0.13, -0.13, 0.99, 328.04, 66.53)"> </text><text class="cls-9" transform="matrix(0.99, 0.16, -0.16, 0.99, 330.92, 66.9)"> </text><text class="cls-9" transform="matrix(0.99, 0.16, -0.16, 0.99, 333.83, 67.35)"> </text><text class="cls-9" transform="translate(336.73 67.82) rotate(9.95)"> </text><text class="cls-9" transform="translate(339.64 68.33) rotate(10.66)"> </text><text class="cls-9" transform="matrix(0.98, 0.2, -0.2, 0.98, 342.53, 68.87)"> </text><text class="cls-9" transform="matrix(0.98, 0.21, -0.21, 0.98, 345.41, 69.45)"> </text><text class="cls-9" transform="translate(348.27 70.06) rotate(12.8)"> </text><text class="cls-9" transform="translate(351.12 70.71) rotate(13.51)"> </text><text class="cls-9" transform="matrix(0.97, 0.25, -0.25, 0.97, 354, 71.4)"> </text><text class="cls-9" transform="translate(356.84 72.12) rotate(14.96)"> </text><text class="cls-9" transform="translate(359.67 72.88) rotate(15.67)"> </text><text class="cls-9" transform="translate(362.5 73.67) rotate(16.39)"> </text><text class="cls-9" transform="translate(365.32 74.5) rotate(17.11)"> </text><text class="cls-9" transform="translate(368.11 75.36) rotate(17.83)"> </text><text class="cls-9" transform="translate(370.94 76.27) rotate(18.56)"> </text><text class="cls-9" transform="translate(373.71 77.2) rotate(19.28)"> </text><text class="cls-9" transform="translate(376.5 78.18) rotate(20.01)"> </text><text class="cls-9" transform="translate(379.25 79.18) rotate(20.73)"> </text><text class="cls-9" transform="matrix(0.93, 0.37, -0.37, 0.93, 381.98, 80.21)"> </text><text class="cls-9" transform="matrix(0.93, 0.38, -0.38, 0.93, 384.72, 81.29)"> </text><text class="cls-9" transform="translate(387.44 82.4) rotate(22.91)"> </text><text class="cls-9" transform="matrix(0.92, 0.4, -0.4, 0.92, 390.16, 83.55)"> </text><text class="cls-9" transform="translate(392.84 84.72) rotate(24.36)"> </text><text class="cls-9" transform="translate(395.52 85.93) rotate(25.09)"> </text><text class="cls-9" transform="translate(398.19 87.18) rotate(25.82)"> </text><text class="cls-9" transform="matrix(0.89, 0.45, -0.45, 0.89, 400.83, 88.46)"> </text><text class="cls-9" transform="translate(403.45 89.77) rotate(27.27)"> </text><text class="cls-9" transform="translate(406.05 91.11) rotate(27.99)"> </text><text class="cls-9" transform="matrix(0.88, 0.48, -0.48, 0.88, 408.66, 92.49)"> </text><text class="cls-9" transform="translate(411.24 93.91) rotate(29.44)"> </text><text class="cls-9" transform="matrix(0.86, 0.5, -0.5, 0.86, 413.8, 95.35)"> </text><text class="cls-9" transform="matrix(0.86, 0.51, -0.51, 0.86, 416.34, 96.83)"> </text><text class="cls-9" transform="translate(418.86 98.33) rotate(31.62)"> </text><text class="cls-9" transform="matrix(0.84, 0.53, -0.53, 0.84, 421.35, 99.87)"> </text><text class="cls-9" transform="matrix(0.84, 0.55, -0.55, 0.84, 423.82, 101.43)"> </text><text class="cls-9" transform="matrix(0.83, 0.56, -0.56, 0.83, 426.31, 103.06)"> </text><text class="cls-9" transform="translate(428.74 104.68) rotate(34.52)"> </text><text class="cls-9" transform="translate(431.16 106.35) rotate(35.24)"> </text><text class="cls-9" transform="translate(433.57 108.04) rotate(35.96)"> </text><text class="cls-9" transform="matrix(0.8, 0.6, -0.6, 0.8, 435.94, 109.77)"> </text><text class="cls-9" transform="translate(438.3 111.52) rotate(37.4)"> </text><text class="cls-9" transform="matrix(0.79, 0.62, -0.62, 0.79, 440.63, 113.3)"> </text><text class="cls-9" transform="matrix(0.78, 0.63, -0.63, 0.78, 442.93, 115.11)"> </text><text class="cls-9" transform="translate(445.23 116.96) rotate(39.57)"> </text><text class="cls-9" transform="translate(447.49 118.76) rotate(41.16)">V</text><text class="cls-9" transform="matrix(0.73, 0.68, -0.68, 0.73, 455.11, 125.49)">I</text><text class="cls-9" transform="translate(458.11 128.23) rotate(44.45)">S</text><text class="cls-9" transform="translate(464.18 134.23) rotate(45.98)">I</text><text class="cls-9" transform="translate(467.04 137.11) rotate(47.81)">O</text><text class="cls-9" transform="translate(474.35 145.18) rotate(50.41)">N</text><text class="cls-9" transform="matrix(0.62, 0.79, -0.79, 0.62, 480.99, 153.29)"> </text><text class="cls-9" transform="matrix(0.61, 0.8, -0.8, 0.61, 482.8, 155.6)"> </text><text class="cls-9" transform="matrix(0.6, 0.8, -0.8, 0.6, 484.57, 157.94)"> </text><text class="cls-9" transform="translate(486.32 160.3) rotate(54.19)"> </text><text class="cls-9" transform="translate(488.04 162.68) rotate(54.9)"> </text><text class="cls-9" transform="translate(489.72 165.08) rotate(55.62)"> </text><text class="cls-9" transform="translate(491.38 167.5) rotate(56.34)"> </text><text class="cls-9" transform="matrix(0.54, 0.84, -0.84, 0.54, 493.01, 169.94)"> </text><text class="cls-9" transform="translate(494.61 172.41) rotate(57.77)"> </text><text class="cls-9" transform="translate(496.17 174.89) rotate(58.48)"> </text><text class="cls-9" transform="translate(497.71 177.39) rotate(59.2)"> </text><text class="cls-9" transform="matrix(0.5, 0.87, -0.87, 0.5, 499.21, 179.92)"> </text><text class="cls-9" transform="translate(500.69 182.46) rotate(60.63)"> </text><text class="cls-9" transform="translate(502.13 185.02) rotate(61.35)"> </text><text class="cls-9" transform="matrix(0.47, 0.88, -0.88, 0.47, 503.54, 187.6)"> </text><text class="cls-9" transform="translate(504.92 190.2) rotate(62.79)"> </text><text class="cls-9" transform="matrix(0.45, 0.9, -0.9, 0.45, 506.26, 192.82)"> </text><text class="cls-9" transform="translate(507.58 195.45) rotate(64.23)"> </text><text class="cls-9" transform="translate(508.85 198.11) rotate(64.95)"> </text><text class="cls-9" transform="translate(510.09 200.76) rotate(65.67)"> </text><text class="cls-9" transform="translate(511.3 203.42) rotate(66.38)"> </text><text class="cls-9" transform="translate(512.48 206.13) rotate(67.11)"> </text><text class="cls-9" transform="matrix(0.38, 0.93, -0.93, 0.38, 513.62, 208.83)"> </text><text class="cls-9" transform="translate(514.73 211.54) rotate(68.55)"> </text><text class="cls-9" transform="matrix(0.35, 0.94, -0.94, 0.35, 515.81, 214.29)"> </text><text class="cls-9" transform="translate(516.84 217.02) rotate(69.99)"> </text><text class="cls-9" transform="translate(517.86 219.8) rotate(70.72)"> </text><text class="cls-9" transform="matrix(0.32, 0.95, -0.95, 0.32, 518.82, 222.55)"> </text><text class="cls-9" transform="translate(519.76 225.34) rotate(72.16)"> </text><text class="cls-9" transform="translate(520.66 228.15) rotate(72.89)"> </text><text class="cls-9" transform="translate(521.52 230.95) rotate(73.61)"> </text><text class="cls-9" transform="translate(522.35 233.76) rotate(74.33)"> </text><text class="cls-9" transform="matrix(0.26, 0.97, -0.97, 0.26, 523.15, 236.6)"> </text><text class="cls-9" transform="matrix(0.25, 0.97, -0.97, 0.25, 523.9, 239.44)"> </text><text class="cls-9" transform="matrix(0.23, 0.97, -0.97, 0.23, 524.62, 242.28)"> </text><text class="cls-9" transform="matrix(0.22, 0.98, -0.98, 0.22, 525.31, 245.15)"> </text><text class="cls-9" transform="translate(525.96 248) rotate(77.96)"> </text><text class="cls-9" transform="translate(526.57 250.88) rotate(78.69)"> </text><text class="cls-9" transform="translate(527.15 253.75) rotate(79.41)"> </text><text class="cls-9" transform="matrix(0.17, 0.99, -0.99, 0.17, 527.69, 256.64)"> </text><text class="cls-9" transform="matrix(0.16, 0.99, -0.99, 0.16, 528.19, 259.56)"> </text><text class="cls-9" transform="matrix(0.15, 0.99, -0.99, 0.15, 528.66, 262.44)"> </text><text class="cls-9" transform="matrix(0.13, 0.99, -0.99, 0.13, 529.09, 265.33)"> </text><text class="cls-9" transform="translate(529.48 268.26) rotate(83.04)"> </text><text class="cls-9" transform="matrix(0.11, 0.99, -0.99, 0.11, 529.84, 271.17)"> </text><text class="cls-9" transform="translate(530.16 274.09) rotate(84.49)"> </text><text class="cls-9" transform="translate(530.44 277.02) rotate(85.22)"> </text><text class="cls-9" transform="matrix(0.07, 1, -1, 0.07, 530.68, 279.94)"> </text><text class="cls-9" transform="matrix(0.06, 1, -1, 0.06, 530.89, 282.89)"> </text><text class="cls-9" transform="translate(531.06 285.8) rotate(87.39)"> </text><text class="cls-9" transform="matrix(0.03, 1, -1, 0.03, 531.2, 288.76)"> </text><text class="cls-9" transform="translate(531.29 291.68) rotate(88.84)"> </text><text class="cls-9" transform="translate(531.35 294.62) rotate(89.56)"> </text><text class="cls-9" transform="matrix(0, 1, -1, 0, 531.38, 297.55)"> </text><text class="cls-9" transform="matrix(-0.02, 1, -1, -0.02, 531.36, 300.5)"> </text><text class="cls-9" transform="translate(531.31 303.43) rotate(91.72)"> </text><text class="cls-9" transform="translate(531.22 306.36) rotate(92.44)"> </text><text class="cls-9" transform="translate(531.1 309.3) rotate(93.15)"> </text><text class="cls-9" transform="matrix(-0.07, 1, -1, -0.07, 530.94, 312.25)"> </text><text class="cls-9" transform="translate(530.74 315.17) rotate(94.59)"> </text><text class="cls-9" transform="translate(530.5 318.1) rotate(95.3)"> </text><text class="cls-9" transform="translate(530.23 321.02) rotate(96.01)"> </text><text class="cls-9" transform="translate(529.93 323.93) rotate(96.72)"> </text><text class="cls-9" transform="translate(529.57 326.88) rotate(97.18)"> </text><text class="cls-9" transform="matrix(-0.16, 0.99, -0.99, -0.16, 529.23, 329.78)"> <tspan x="2.93" y="-0.03"> </tspan></text><text class="cls-9" transform="matrix(-0.17, 0.99, -0.99, -0.17, 528.34, 335.58)"> </text><text class="cls-9" transform="translate(527.85 338.48) rotate(100.25)"> </text><text class="cls-9" transform="translate(527.33 341.38) rotate(100.97)"> </text><text class="cls-9" transform="translate(526.77 344.26) rotate(101.68)"> </text><text class="cls-9" transform="matrix(-0.21, 0.98, -0.98, -0.21, 526.17, 347.14)"> </text><text class="cls-9" transform="matrix(-0.23, 0.97, -0.97, -0.23, 525.54, 349.99)"> </text><text class="cls-9" transform="matrix(-0.24, 0.97, -0.97, -0.24, 524.87, 352.88)"> </text><text class="cls-9" transform="translate(524.18 355.71) rotate(104.54)"> </text><text class="cls-9" transform="matrix(-0.26, 0.96, -0.96, -0.26, 523.44, 358.56)"> </text><text class="cls-9" transform="translate(522.66 361.4) rotate(105.99)"> </text><text class="cls-9" transform="matrix(-0.29, 0.96, -0.96, -0.29, 521.85, 364.23)"> </text><text class="cls-9" transform="matrix(-0.3, 0.95, -0.95, -0.3, 521.01, 367.04)"> </text><text class="cls-9" transform="translate(520.13 369.83) rotate(108.15)"> </text><text class="cls-9" transform="translate(519.22 372.62) rotate(108.87)"> </text><text class="cls-9" transform="translate(518.27 375.4) rotate(109.6)"> </text><text class="cls-9" transform="matrix(-0.35, 0.94, -0.94, -0.35, 517.28, 378.19)"> </text><text class="cls-9" transform="translate(516.26 380.93) rotate(111.05)"> </text><text class="cls-9" transform="matrix(-0.37, 0.93, -0.93, -0.37, 515.2, 383.68)"> </text><text class="cls-9" transform="matrix(-0.38, 0.92, -0.92, -0.38, 514.11, 386.41)"> </text><text class="cls-9" transform="matrix(-0.39, 0.92, -0.92, -0.39, 512.99, 389.12)"> </text><text class="cls-9" transform="translate(511.83 391.83) rotate(113.96)"> </text><text class="cls-9" transform="matrix(-0.42, 0.91, -0.91, -0.42, 510.64, 394.5)"> </text><text class="cls-9" transform="translate(509.42 397.16) rotate(115.4)"> </text><text class="cls-9" transform="translate(508.15 399.83) rotate(116.13)"> </text><text class="cls-9" transform="translate(506.86 402.47) rotate(116.86)"> </text><text class="cls-9" transform="translate(505.53 405.08) rotate(117.58)"> </text><text class="cls-9" transform="translate(504.17 407.7) rotate(118.31)"> </text><text class="cls-9" transform="translate(502.78 410.27) rotate(119.03)"> </text><text class="cls-9" transform="translate(501.35 412.84) rotate(119.76)"> </text><text class="cls-9" transform="matrix(-0.51, 0.86, -0.86, -0.51, 499.9, 415.39)"> </text><text class="cls-9" transform="matrix(-0.52, 0.86, -0.86, -0.52, 498.41, 417.92)"> </text><text class="cls-9" transform="translate(496.88 420.45) rotate(121.94)"> </text><text class="cls-9" transform="matrix(-0.54, 0.84, -0.84, -0.54, 495.33, 422.93)"> </text><text class="cls-9" transform="matrix(-0.55, 0.84, -0.84, -0.55, 493.75, 425.4)"> </text><text class="cls-9" transform="translate(492.13 427.86) rotate(124.11)"> </text><text class="cls-9" transform="translate(490.48 430.3) rotate(124.83)"> </text><text class="cls-9" transform="matrix(-0.58, 0.81, -0.81, -0.58, 488.81, 432.69)"> </text><text class="cls-9" transform="matrix(-0.59, 0.81, -0.81, -0.59, 487.09, 435.1)"> </text><text class="cls-9" transform="translate(485.37 437.45) rotate(126.99)"> </text><text class="cls-9" transform="translate(483.59 439.81) rotate(127.72)"> </text><text class="cls-9" transform="matrix(-0.62, 0.78, -0.78, -0.62, 481.79, 442.13)"> </text><text class="cls-9" transform="translate(479.97 444.43) rotate(129.16)"> </text><text class="cls-9" transform="translate(478.11 446.71) rotate(129.88)"> </text><text class="cls-9" transform="translate(476.23 448.96) rotate(130.6)"> </text><text class="cls-9" transform="translate(474.32 451.2) rotate(131.32)"> </text><text class="cls-9" transform="translate(472.39 453.39) rotate(132.04)"> </text><text class="cls-9" transform="translate(470.41 455.58) rotate(132.76)"> </text><text class="cls-9" transform="translate(468.42 457.74) rotate(133.48)"> </text><text class="cls-9" transform="translate(466.39 459.87) rotate(134.2)"> </text><text class="cls-9" transform="matrix(-0.71, 0.71, -0.71, -0.71, 464.34, 461.98)"> </text><text class="cls-9" transform="matrix(-0.71, 0.7, -0.7, -0.71, 462.27, 464.06)"> </text><text class="cls-9" transform="matrix(-0.72, 0.69, -0.69, -0.72, 460.17, 466.12)"> </text><text class="cls-9" transform="matrix(-0.73, 0.68, -0.68, -0.73, 458.04, 468.15)"> </text><text class="cls-9" transform="translate(455.89 470.15) rotate(137.78)"> </text><text class="cls-9" transform="translate(453.72 472.12) rotate(138.5)"> </text><text class="cls-9" transform="matrix(-0.76, 0.65, -0.65, -0.76, 451.52, 474.07)"> </text><text class="cls-9" transform="translate(449.3 475.99) rotate(139.93)"> </text><text class="cls-9" transform="matrix(-0.77, 0.63, -0.63, -0.77, 447.05, 477.87)"> </text><text class="cls-9" transform="matrix(-0.78, 0.62, -0.62, -0.78, 444.78, 479.74)"> </text><text class="cls-9" transform="translate(442.49 481.57) rotate(142.08)"> </text><text class="cls-9" transform="matrix(-0.8, 0.6, -0.6, -0.8, 440.17, 483.37)"> </text><text class="cls-9" transform="translate(437.84 485.15) rotate(143.51)"> </text><text class="cls-9" transform="translate(435.48 486.89) rotate(144.22)"> </text><text class="cls-9" transform="matrix(-0.82, 0.57, -0.57, -0.82, 433.08, 488.62)"> </text><text class="cls-9" transform="translate(430.68 490.31) rotate(145.66)"> </text><text class="cls-9" transform="matrix(-0.83, 0.55, -0.55, -0.83, 428.25, 491.96)"> </text><text class="cls-9" transform="translate(425.81 493.59) rotate(147.09)"> </text><text class="cls-9" transform="translate(423.33 495.19) rotate(147.81)"> </text><text class="cls-9" transform="translate(420.84 496.76) rotate(148.53)"> </text><text class="cls-9" transform="matrix(-0.86, 0.51, -0.51, -0.86, 418.34, 498.29)"> </text><text class="cls-9" transform="translate(415.81 499.8) rotate(149.96)"> </text><text class="cls-9" transform="translate(413.27 501.27) rotate(150.68)"> </text><text class="cls-9" transform="matrix(-0.88, 0.48, -0.48, -0.88, 410.71, 502.71)"> </text><text class="cls-9" transform="matrix(-0.88, 0.47, -0.47, -0.88, 408.14, 504.1)"> </text><text class="cls-9" transform="translate(405.54 505.48) rotate(152.83)"> </text><text class="cls-9" transform="translate(402.93 506.82) rotate(153.55)"> </text><text class="cls-9" transform="translate(400.31 508.13) rotate(154.26)"> </text><text class="cls-9" transform="translate(397.66 509.41) rotate(154.98)"> </text><text class="cls-9" transform="translate(394.99 510.65) rotate(155.71)"> </text><text class="cls-9" transform="translate(392.3 511.86) rotate(156.43)"> </text><text class="cls-9" transform="matrix(-0.92, 0.39, -0.39, -0.92, 389.63, 513.03)"> </text><text class="cls-9" transform="translate(386.91 514.18) rotate(157.87)"> </text><text class="cls-9" transform="translate(384.18 515.29) rotate(158.59)"> </text><text class="cls-9" transform="translate(381.47 516.35) rotate(159.31)"> </text><text class="cls-9" transform="matrix(-0.94, 0.34, -0.34, -0.94, 378.7, 517.4)"> </text><text class="cls-9" transform="translate(375.96 518.39) rotate(160.75)"> </text><text class="cls-9" transform="translate(373.16 519.37) rotate(161.48)"> </text><text class="cls-9" transform="matrix(-0.95, 0.31, -0.31, -0.95, 370.39, 520.3)"> </text><text class="cls-9" transform="translate(367.61 521.19) rotate(162.92)"> </text><text class="cls-9" transform="translate(364.79 522.06) rotate(163.65)"> </text><text class="cls-9" transform="translate(361.96 522.89) rotate(164.37)"> </text><text class="cls-9" transform="matrix(-0.97, 0.26, -0.26, -0.97, 359.13, 523.68)"> </text><text class="cls-9" transform="matrix(-0.97, 0.24, -0.24, -0.97, 356.29, 524.44)"> </text><text class="cls-9" transform="translate(353.44 525.16) rotate(166.55)"> </text><text class="cls-9" transform="matrix(-0.98, 0.22, -0.22, -0.98, 350.58, 525.84)"> </text><text class="cls-9" transform="translate(347.73 526.48) rotate(168)"> </text><text class="cls-9" transform="matrix(-0.98, 0.2, -0.2, -0.98, 344.87, 527.09)"> </text><text class="cls-9" transform="translate(341.97 527.67) rotate(169.45)"> </text><text class="cls-9" transform="translate(339.09 528.21) rotate(170.17)"> </text><text class="cls-9" transform="matrix(-0.99, 0.16, -0.16, -0.99, 336.19, 528.71)"> </text><text class="cls-9" transform="translate(333.34 529.22) rotate(172.51)">V</text><text class="cls-9" transform="translate(323.29 530.52) rotate(174.69)">E</text><text class="cls-9" transform="translate(315.84 531.24) rotate(176.9)">N</text><text class="cls-9" transform="translate(305.43 531.78) rotate(179.19)">T</text><text class="cls-9" transform="translate(297.24 531.92) rotate(-178.61)">U</text><text class="cls-9" transform="matrix(-1, -0.06, 0.06, -1, 287.48, 531.67)">R</text><text class="cls-9" transform="translate(278.44 531.08) rotate(-174.3)">E</text><path class="cls-7" d="M347.33,183l4-3.37h5.29v-5.49H343.49v5.49h3.84Zm-2.74-4.47v-3.29h11v3.29H351l-2.54,2.12v-2.12Z"/><path class="cls-7" d="M345.68,176.33h1.1v1.09h-1.1Z"/><path class="cls-7" d="M347.88,176.33h4.39v1.09h-4.39Z"/><path class="cls-7" d="M353.37,176.33h1.09v1.09h-1.09Z"/><path class="cls-7" d="M358.25,207.05l-.44-4.44a3.85,3.85,0,0,0,3.24-3.79v-7.13h-2.2v-.76a2,2,0,0,0-1.07-1.76,3.25,3.25,0,0,0,1.07-2.42v-1.1a3.29,3.29,0,0,0-6.58,0v1.1a3.28,3.28,0,0,0,2.17,3.09l-2.95,2.95h-3.07a2.22,2.22,0,0,0-1.58-2l-2.25-.64v-1a3.29,3.29,0,0,0,1.09-2.45v-1.1a3.29,3.29,0,0,0-6.58,0v1.1a3.29,3.29,0,0,0,1.1,2.45v1l-2.25.64a2.21,2.21,0,0,0-1.59,2.11v2h-2.2v3.29h1.1v8.78h-4.94v1.1h34v-1.1Zm-4.88-8.78v-2.51l3.88-3.89a1.74,1.74,0,0,0,.49-1.05s0,.07,0,.11v6.79a1.64,1.64,0,0,1-1.64,1.65h-4.39v-1.1Zm-1.65,4.39h2.8l.43,4.39h-3.23Zm3.9,0h1.09l.44,4.39h-1.09Zm3.23-4.94v-4.93H360v6a2.75,2.75,0,0,1-2.74,2.75h-5.49v-1.1h4.39A2.75,2.75,0,0,0,358.85,197.72Zm-5.48-11v-1.1a2.19,2.19,0,0,1,4.38,0v1.1a2.19,2.19,0,1,1-4.38,0ZM352,193.88l3.66-3.66a.62.62,0,0,1,.87.87L352.59,195h-5.81a.55.55,0,0,1-.55-.55.55.55,0,0,1,.55-.55Zm-11.75-8.23a2.2,2.2,0,0,1,4.39,0v1.1a2.2,2.2,0,1,1-4.39,0Zm2.19,4.39a3.3,3.3,0,0,0,1.1-.19v.59a1.4,1.4,0,0,1-1.1.7,1.38,1.38,0,0,1-1.09-.7v-.59A3.29,3.29,0,0,0,342.39,190Zm-4.93,2.89a1.08,1.08,0,0,1,.79-1.05l2.26-.65a2.38,2.38,0,0,0,1.88,1,2.35,2.35,0,0,0,1.88-1l2.27.65a1.09,1.09,0,0,1,.77.91h-.53a1.63,1.63,0,0,0-1.54,2.19h-7.78Zm-2.2,3.15h17v1.1h-17Zm1.1,4.39H338v-1.1h-1.64v-1.1h14.26v1.1H339.1v1.1h11.52v6.58h-1.3l-1.1-2.19h-9.46l-1.1,2.19h-1.3Zm11.73,6.58h-9.2l.55-1.1h8.1Z"/><path class="cls-7" d="M431.87,245.31a.56.56,0,0,0,.57-.57v-2.26a.57.57,0,1,0-1.13,0v2.26A.56.56,0,0,0,431.87,245.31Z"/><path class="cls-7" d="M424.86,244.51l1.14,2a.56.56,0,0,0,1-.56h0l-1.14-2a.56.56,0,1,0-1,.56Z"/><path class="cls-7" d="M420.29,249.48h0l2,1.13a.57.57,0,1,0,.57-1h0l-2-1.13a.56.56,0,1,0-.57,1Z"/><path class="cls-7" d="M421.67,255.52a.56.56,0,0,0-.57-.57h-2.27a.57.57,0,0,0,0,1.13h2.27A.56.56,0,0,0,421.67,255.52Z"/><path class="cls-7" d="M422.27,260.41h0l-2,1.13a.57.57,0,0,0-.21.78.56.56,0,0,0,.77.21h0l2-1.14a.56.56,0,0,0-.56-1Z"/><path class="cls-7" d="M443.46,261.55h0l-2-1.13a.57.57,0,0,0-.58,1h0l2,1.14a.58.58,0,0,0,.78-.21A.56.56,0,0,0,443.46,261.55Z"/><path class="cls-7" d="M444.91,255h-2.26a.57.57,0,1,0,0,1.13h2.26a.57.57,0,1,0,0-1.13Z"/><path class="cls-7" d="M441.2,250.7a.6.6,0,0,0,.29-.08l2-1.13a.57.57,0,0,0-.56-1h0l-2,1.13a.57.57,0,0,0-.21.77A.56.56,0,0,0,441.2,250.7Z"/><path class="cls-7" d="M437,246.68h0a.56.56,0,0,0,.77-.21h0l1.13-2a.57.57,0,0,0-.2-.78.56.56,0,0,0-.77.2h0l-1.13,2A.56.56,0,0,0,437,246.68Z"/><path class="cls-7" d="M433,264.59a.57.57,0,0,0,.56-.57v-6.24h1.14a2.27,2.27,0,1,0-2.27-2.26v1.13h-1.13v-1.13a2.27,2.27,0,1,0-2.27,2.26h1.13V264a.57.57,0,0,0,1.14,0v-6.24h1.13V264A.57.57,0,0,0,433,264.59Zm.56-9.07a1.14,1.14,0,1,1,1.14,1.13h-1.14Zm-3.4,1.13H429a1.14,1.14,0,1,1,1.13-1.13Z"/><path class="cls-7" d="M432.31,246.46a9.07,9.07,0,0,0-6.19,16.07,1.68,1.68,0,0,1,.65,1.29v1.33a1.7,1.7,0,0,0,1.14,1.6v.67a4.76,4.76,0,0,1,.44,3.4,1.69,1.69,0,0,0,1.26,2.84.55.55,0,0,0,.56-.54.48.48,0,0,0-.1-.33l-.06-.1a.91.91,0,0,0-.16-.11l-.05,0-.18,0h0a.57.57,0,1,1,0-1.13h2.26a.57.57,0,1,0,0-1.13h-2.26a.57.57,0,0,1,0-1.14h2.26a.57.57,0,1,0,0-1.13h-2.26a.57.57,0,0,1-.57-.57v-.57h2.83a.57.57,0,1,0,0-1.13h-3.4a.56.56,0,0,1-.56-.57v-1.33a2.81,2.81,0,0,0-1.07-2.17,7.94,7.94,0,0,1,5.42-14.06,8,8,0,0,1,7.55,7.88,7.88,7.88,0,0,1-2.94,6.21,2.84,2.84,0,0,0-1,2.21v1.26a.56.56,0,0,1-.56.57h-1.71a.57.57,0,0,0,0,1.13h1.14v.57a.58.58,0,0,1-.57.57h-.57a.57.57,0,0,0,0,1.13h.57a.57.57,0,0,1,0,1.14h-.57a.57.57,0,0,0,0,1.13h.57a.57.57,0,1,1,0,1.13h-2.83a.57.57,0,0,0,0,1.14h2.17a1.7,1.7,0,0,1-2.17,1,1.61,1.61,0,0,1-.71-.47.58.58,0,0,0-.8-.05.57.57,0,0,0,0,.8,2.82,2.82,0,0,0,4,.24,2.87,2.87,0,0,0,.91-1.64,1.69,1.69,0,0,0,1.11-2.11,1.79,1.79,0,0,0-.37-.64,1.66,1.66,0,0,0,0-2.26,1.71,1.71,0,0,0,.44-1.14v-.67a1.72,1.72,0,0,0,1.14-1.6v-1.26a1.67,1.67,0,0,1,.6-1.32,9,9,0,0,0,3.36-7.11A9.16,9.16,0,0,0,432.31,246.46Z"/><path class="cls-7" d="M436.58,373.17a1.71,1.71,0,1,0-1.71-1.71A1.72,1.72,0,0,0,436.58,373.17Zm0-2.36a.65.65,0,1,1-.64.65A.64.64,0,0,1,436.58,370.81Z"/><path class="cls-7" d="M420.11,376.11a.54.54,0,0,0-.54.53v3.06a.54.54,0,0,0,.54.53h11.76a.54.54,0,0,0,.54-.53v-7.06a.54.54,0,0,0-.54-.54H420.11a.54.54,0,0,0-.54.54v1.87a.54.54,0,0,0,1.07,0v-1.34h10.7v6h-10.7v-2.52A.53.53,0,0,0,420.11,376.11Z"/><path class="cls-7" d="M435.4,380.23h2.36a.54.54,0,0,0,0-1.07H435.4a.54.54,0,0,0,0,1.07Z"/><path class="cls-7" d="M448.94,369.75H447l0,0h0l0,0h0l0,0h0l0,0h0l0,0-3.38,3.38h-1.6v-3a2.88,2.88,0,0,0-2.89-2.88h-4.17v-2.47h1.29V365a1.12,1.12,0,0,0,1.12,1.12h5.29a2.9,2.9,0,0,0,2.89-3,2.93,2.93,0,0,0-2.93-2.81h-5.25a1.13,1.13,0,0,0-1.12,1.13v.05h-1.38a1.71,1.71,0,0,0-1.62-1.18h-7.77a1.71,1.71,0,0,0-1.53.95l-.92,1.83a1.67,1.67,0,0,0-1.12-.42h-5.13a2.88,2.88,0,0,0-2.89,2.88v16.48a2.89,2.89,0,0,0,2.89,2.89h1.05a.54.54,0,0,0,0-1.07h-1.05a1.83,1.83,0,0,1-1.83-1.82V368.46h24.18a1.83,1.83,0,0,1,1.83,1.82v11.77a1.83,1.83,0,0,1-1.83,1.82H419.76a.54.54,0,0,0,0,1.07h2.17v1.25a1.1,1.1,0,0,0,.91,1.08l-2.64,6.34a.52.52,0,0,0,.05.5.54.54,0,0,0,.44.24h2.95a.54.54,0,0,0,.49-.33l1.92-4.6v4.4a.53.53,0,0,0,.53.53h2.35a.53.53,0,0,0,.53-.53v-4.4l1.92,4.6a.53.53,0,0,0,.49.33h2.95a.54.54,0,0,0,.44-.24.52.52,0,0,0,.05-.5l-2.64-6.34a1.09,1.09,0,0,0,.91-1.08v-1.25h5.35a2.89,2.89,0,0,0,2.89-2.89v-3h1.6l3.38,3.38,0,0h0l0,0h0l0,0h0a.05.05,0,0,0,0,0h0l0,0h1.92a1.12,1.12,0,0,0,1.12-1.12V370.87a1.12,1.12,0,0,0-1.12-1.12Zm-9.47-8.35h2.95a1.85,1.85,0,0,1,1.86,1.77,1.75,1.75,0,0,1-.51,1.32,1.8,1.8,0,0,1-1.31.55h-3V361.4Zm-2.36,3v-2.94a.06.06,0,0,1,.06-.06h1.23V365h-1.23a.06.06,0,0,1-.06-.05Zm-2.35-1.82h1.29v1.28h-1.29Zm-20,4.82v-1.83a1.83,1.83,0,0,1,1.83-1.82h5.13a.64.64,0,0,1,.58.36L424,367.4Zm16.59,0h-6.2l-.32-.63,1.51-3h5Zm2.35-3v3h-1.28v-4.18a.54.54,0,0,0-.54-.53H426a.52.52,0,0,0-.47.29l-1.3,2.61-.73-1.44,1.2-2.39a.64.64,0,0,1,.58-.36h7.77a.64.64,0,0,1,.64.64v2.36Zm-10.41,28.88h-1.79l2.5-6h1.79Zm5.12,0h-1.29v-6h1.29Zm.53-7.06H423s0,0,0,0v-1.25h9.53v1.25s0,0,0,0h-3.55Zm5.09,7.06h-1.79l-2.5-6h1.79ZM443.11,378h-1.29v-3.65h1.29Zm3.53,2.77-2.47-2.46V374l2.47-2.46Zm2.35.7a.06.06,0,0,1-.05.06H447.7V370.81h1.24a.06.06,0,0,1,.05.06Z"/><path class="cls-7" d="M423.58,376.46v-.59a.54.54,0,0,0-1.07,0v.59a.54.54,0,0,0,1.07,0Z"/><path class="cls-7" d="M426.52,376.46v-.59a.53.53,0,0,0-1.06,0v.59a.53.53,0,1,0,1.06,0Z"/><path class="cls-7" d="M429.46,376.46v-.59a.53.53,0,0,0-.53-.53.53.53,0,0,0-.53.53v.59a.53.53,0,0,0,.53.53A.53.53,0,0,0,429.46,376.46Z"/><path class="cls-10" d="M170.71,363.84l-15.44-7.46a.56.56,0,0,0-.44,0l-15.44,7.46a.5.5,0,0,0-.28.45V382.4a.49.49,0,0,0,.28.44l15.44,7.46a.51.51,0,0,0,.44,0l15.44-7.46a.49.49,0,0,0,.28-.44V364.29A.5.5,0,0,0,170.71,363.84Zm-15.66-6.45,14.3,6.9-4.15,2-.08-.05-14.2-6.86Zm-5.26,2.55,14.28,6.9-2.92,1.41-14.28-6.89Zm14.61,7.84V373l-2.73,1.32V369.1Zm5.6,14.3-14.45,7v-17l3.44-1.67a.49.49,0,0,0,.24-.66.5.5,0,0,0-.67-.23l-3.51,1.69-1.38-.67a.5.5,0,0,0-.44.9l1.32.64v17l-14.45-7v-17l11,5.31a.41.41,0,0,0,.21.05.49.49,0,0,0,.45-.28.49.49,0,0,0-.23-.66l-10.79-5.21,4.95-2.39,15,7.23h0v6a.51.51,0,0,0,.23.43.48.48,0,0,0,.26.07.54.54,0,0,0,.22-.05l3.73-1.8a.5.5,0,0,0,.28-.45v-6l4.6-2.22v17Z"/><path class="cls-10" d="M144.22,380.15,142,379.06a.5.5,0,0,0-.67.23.49.49,0,0,0,.24.66l2.26,1.1a.59.59,0,0,0,.22.05.52.52,0,0,0,.45-.28A.51.51,0,0,0,144.22,380.15Z"/><path class="cls-10" d="M146.3,378.79l-4.35-2.1a.5.5,0,0,0-.43.9l4.35,2.1a.54.54,0,0,0,.21.05.48.48,0,0,0,.45-.28A.5.5,0,0,0,146.3,378.79Z"/><path class="cls-7" d="M254.25,210.66H252.8V189.5a1.79,1.79,0,0,0-1.79-1.78h-3.26A1.78,1.78,0,0,0,246,189.5v21.16h-3.7V199.09a1.79,1.79,0,0,0-1.79-1.79h-3.25a1.79,1.79,0,0,0-1.79,1.79v11.57h-3.7v-6a1.79,1.79,0,0,0-1.79-1.79H226.7a1.79,1.79,0,0,0-1.79,1.79v6h-1.54a.67.67,0,0,0,0,1.33h30.88a.67.67,0,1,0,0-1.33Zm-23.84,0h-4.17v-6a.46.46,0,0,1,.46-.46H230a.46.46,0,0,1,.46.46v6Zm10.53,0h-4.17V199.09a.46.46,0,0,1,.45-.46h3.26a.47.47,0,0,1,.46.46Zm10.53,0H247.3V189.5a.45.45,0,0,1,.45-.45H251a.46.46,0,0,1,.46.45v21.16Z"/><path class="cls-7" d="M252.8,178.67a.68.68,0,0,0-.7-.7h-4a.67.67,0,1,0,0,1.33h2.48L244,185.87l-2.48-2.48a.67.67,0,0,0-.47-.19.7.7,0,0,0-.47.19l-11.94,12a.66.66,0,0,0,.94.94L241,184.8l2.48,2.48a.66.66,0,0,0,.94,0l7-7v2.25a.67.67,0,0,0,1.33,0v-3.82Z"/><circle class="cls-7" cx="226.83" cy="198.12" r="0.66"/><path class="cls-7" d="M311.18,296l-3.8-5.88a1.62,1.62,0,0,0-1.34-.73H289.25a1.59,1.59,0,0,0-1.34.73L284.09,296a1.6,1.6,0,0,0,.15,1.93l12.21,13.7a1.58,1.58,0,0,0,1.19.53h0a1.59,1.59,0,0,0,1.19-.53L311,297.9A1.59,1.59,0,0,0,311.18,296Zm-5.91-5.24-3.2,4.95-3.2-4.95Zm-4.46,5.52h-6.35l3.18-4.9Zm-4.4-5.52-3.19,4.94-3.2-4.94Zm-7.65.56,3.21,5h-6.43Zm-2.93,6.33h6.87l3.64,11.8ZM297.64,309l-3.51-11.38h7Zm1.3.42,3.63-11.8h6.88Zm4.38-13.17,3.21-4.95,3.21,4.95Z"/><path class="cls-7" d="M282.22,296.26h-1.39a.69.69,0,0,0,0,1.37h1.39a.69.69,0,0,0,0-1.37Z"/><path class="cls-7" d="M314.45,296.26h-1.39a.69.69,0,1,0,0,1.37h1.39a.69.69,0,0,0,0-1.37Z"/><path class="cls-7" d="M310,284.58a.69.69,0,0,0-1,0l-2.27,2.27a.68.68,0,0,0,0,1,.69.69,0,0,0,.48.2.67.67,0,0,0,.48-.2l2.27-2.27A.68.68,0,0,0,310,284.58Z"/><path class="cls-7" d="M288.53,286.84l-2.27-2.27a.69.69,0,1,0-1,1l2.27,2.27a.69.69,0,0,0,.48.2.71.71,0,0,0,.49-.2A.7.7,0,0,0,288.53,286.84Z"/><path class="cls-7" d="M297.66,279.46a.68.68,0,0,0-.69.68v4.45a.69.69,0,1,0,1.37,0v-4.45A.68.68,0,0,0,297.66,279.46Z"/><path class="cls-7" d="M298.14,286.42a.69.69,0,0,0-1,0,.67.67,0,0,0-.2.48.7.7,0,0,0,.2.49.69.69,0,0,0,1,0,.7.7,0,0,0,.2-.49A.67.67,0,0,0,298.14,286.42Z"/><rect class="cls-1" x="260.34" y="524.76" width="77.77" height="20.24"/><text class="cls-9" transform="translate(266.77 535.98) rotate(7.12)">V</text><text class="cls-9" transform="translate(277.16 537.25) rotate(4.64)">E</text><text class="cls-9" transform="translate(284.99 537.91) rotate(2.11)">N</text><text class="cls-9" transform="translate(295.75 538.27) rotate(-0.52)">T</text><text class="cls-9" transform="matrix(1, -0.05, 0.05, 1, 304.3, 538.21)">U</text><text class="cls-9" transform="translate(314.43 537.65) rotate(-5.71)">R</text><text class="cls-9" transform="matrix(0.99, -0.14, 0.14, 0.99, 323.76, 536.7)">E</text><path class="cls-7" d="M164.68,264.45v-3.89H166l.19-1.52h-1.46v-1c0-.44.12-.74.73-.74h.78V256a9.88,9.88,0,0,0-1.14-.06,1.8,1.8,0,0,0-1.89,2V259h-1.27v1.52h1.27v3.89Z"/><path class="cls-7" d="M180.35,263.27a8.52,8.52,0,0,0,8.44-8.7c0-.13,0-.26,0-.39a6.06,6.06,0,0,0,1.48-1.59,5.45,5.45,0,0,1-1.7.48,3,3,0,0,0,1.3-1.69,5.83,5.83,0,0,1-1.88.75,2.9,2.9,0,0,0-2.16-1,3,3,0,0,0-3,3.06,3.1,3.1,0,0,0,.08.69,8.33,8.33,0,0,1-6.12-3.19,3.18,3.18,0,0,0-.4,1.54,3.09,3.09,0,0,0,1.32,2.54,2.93,2.93,0,0,1-1.34-.38v0a3,3,0,0,0,2.38,3,2.88,2.88,0,0,1-.78.11,2.6,2.6,0,0,1-.56-.06,3,3,0,0,0,2.77,2.13,5.84,5.84,0,0,1-3.68,1.31,5.52,5.52,0,0,1-.71-.05,8.18,8.18,0,0,0,4.54,1.38"/><path class="cls-7" d="M176.77,269.7c1.67,0,1.87,0,2.53,0a3.3,3.3,0,0,1,1.16.23,1.76,1.76,0,0,1,.72.48,2,2,0,0,1,.47.74,3.6,3.6,0,0,1,.22,1.2c0,.68,0,.89,0,2.61s0,1.93,0,2.61a3.54,3.54,0,0,1-.22,1.2,2,2,0,0,1-.47.75,2,2,0,0,1-.72.48,3.36,3.36,0,0,1-1.16.22c-.66,0-.86,0-2.53,0s-1.88,0-2.54,0a3.36,3.36,0,0,1-1.16-.22,2.07,2.07,0,0,1-.72-.48,2,2,0,0,1-.47-.75,3.54,3.54,0,0,1-.22-1.2c0-.68,0-.88,0-2.61s0-1.93,0-2.61a3.6,3.6,0,0,1,.22-1.2,2,2,0,0,1,.47-.74,1.83,1.83,0,0,1,.72-.48,3.3,3.3,0,0,1,1.16-.23c.66,0,.86,0,2.54,0m0-1.17c-1.71,0-1.92,0-2.59,0a4.42,4.42,0,0,0-1.52.3,3.28,3.28,0,0,0-1.83,1.89,4.69,4.69,0,0,0-.3,1.57c0,.69,0,.91,0,2.66s0,2,0,2.67a4.69,4.69,0,0,0,.3,1.57,3.28,3.28,0,0,0,1.83,1.89,4.67,4.67,0,0,0,1.52.3c.67,0,.88,0,2.59,0s1.91,0,2.58,0a4.67,4.67,0,0,0,1.52-.3,3.16,3.16,0,0,0,1.11-.75,3.21,3.21,0,0,0,.73-1.14,5,5,0,0,0,.29-1.57c0-.69,0-.91,0-2.67s0-2,0-2.66a5,5,0,0,0-.29-1.57,3.21,3.21,0,0,0-.73-1.14,3.16,3.16,0,0,0-1.11-.75,4.42,4.42,0,0,0-1.52-.3c-.67,0-.88,0-2.58,0"/><path class="cls-7" d="M176.77,271.68A3.32,3.32,0,1,0,180,275a3.26,3.26,0,0,0-3.22-3.31m0,5.47a2.16,2.16,0,1,1,2.09-2.16,2.12,2.12,0,0,1-2.09,2.16"/><path class="cls-7" d="M180.86,271.54a.75.75,0,1,1-.75-.77.76.76,0,0,1,.75.77"/><path class="cls-7" d="M154.07,247.58a3,3,0,0,0-.51-1.32,1.87,1.87,0,0,0-1.3-.57c-1.8-.13-4.51-.13-4.51-.13h0s-2.71,0-4.51.13a1.87,1.87,0,0,0-1.3.57,3,3,0,0,0-.51,1.32,20.65,20.65,0,0,0-.13,2.15v1a20.4,20.4,0,0,0,.13,2.15,3,3,0,0,0,.51,1.32,2.13,2.13,0,0,0,1.43.57c1,.11,4.39.14,4.39.14s2.71,0,4.51-.14a1.83,1.83,0,0,0,1.3-.57,3,3,0,0,0,.51-1.32,20.4,20.4,0,0,0,.13-2.15v-1A20.65,20.65,0,0,0,154.07,247.58ZM146.41,252v-3.73l3.49,1.87Z"/><path class="cls-7" d="M155.87,277.34h2.28v7.54h-2.28Zm1.14-3.76a1.36,1.36,0,1,1-1.32,1.36,1.34,1.34,0,0,1,1.32-1.36"/><path class="cls-7" d="M159.58,277.34h2.18v1h0a2.37,2.37,0,0,1,2.15-1.22c2.31,0,2.73,1.56,2.73,3.59v4.14H164.4v-3.67c0-.87,0-2-1.18-2s-1.37,1-1.37,1.94v3.73h-2.27Z"/><path class="cls-7" d="M148.17,279.43h-.85v-4.16a.43.43,0,1,0-.85,0v4.16H135.41v-8.5H139a.43.43,0,0,0,0-.85h-4a.42.42,0,0,0-.43.42v8.93h-.85a.43.43,0,0,0-.43.43v.85a2.14,2.14,0,0,0,2.13,2.13h11.06a2.14,2.14,0,0,0,2.13-2.13v-.85A.43.43,0,0,0,148.17,279.43Zm-.42,1.28a1.28,1.28,0,0,1-1.28,1.28h-.85v-.43a.43.43,0,0,0-.85,0V282h-7.66v-.43a.43.43,0,0,0-.85,0V282h-.85a1.28,1.28,0,0,1-1.28-1.28v-.42h13.62Z"/><path class="cls-7" d="M148.17,266.25a.42.42,0,0,0,.34-.17l1.28-1.7a.43.43,0,0,0-.09-.6.42.42,0,0,0-.59.09l-1.28,1.7a.42.42,0,0,0,.09.59A.38.38,0,0,0,148.17,266.25Z"/><path class="cls-7" d="M149.11,267.78a.41.41,0,0,0,.34.17.44.44,0,0,0,.25-.08l1.7-1.28a.43.43,0,0,0,.09-.6.44.44,0,0,0-.6-.08l-1.7,1.27a.43.43,0,0,0-.08.6Z"/><path class="cls-7" d="M153.27,268.72a.42.42,0,0,0-.49-.35h0l-2.12.42a.43.43,0,1,0,.08.85h.09l2.12-.42a.44.44,0,0,0,.35-.5Z"/><path class="cls-7" d="M133.71,268.8h5.1a.42.42,0,0,0,.43-.42v-6.81a.43.43,0,0,0-.43-.43h-5.1a.43.43,0,0,0-.43.43v6.81A.42.42,0,0,0,133.71,268.8Zm.42-6.8h4.26V268h-4.26Z"/><path class="cls-7" d="M138.49,255.65h-1.16a.58.58,0,1,0,0,1.16h1.16a.58.58,0,1,0,0-1.16Z"/><path class="cls-7" d="M137.11,264.55h-1.7a.43.43,0,0,0,0,.85h1.7a.43.43,0,1,0,0-.85Z"/><path class="cls-7" d="M137.11,266.25h-1.7a.43.43,0,0,0,0,.85h1.7a.43.43,0,1,0,0-.85Z"/><path class="cls-7" d="M147.8,268.67a.43.43,0,0,0-.59-.15.42.42,0,0,0-.15.58l1.87,3.24-6.8,2.56h-.07l-1.1.63-.74.43a.86.86,0,0,1-.65.08.83.83,0,0,1-.51-.39l-.85-1.47a.86.86,0,0,1,.32-1.13l1.47-.85,1.06,1.85a.44.44,0,0,0,.37.21.43.43,0,0,0,.43-.43.42.42,0,0,0-.06-.21l-1.09-1.9,5.33-4.4.18.3a.43.43,0,1,0,.74-.42l-.43-.74a.4.4,0,0,0-.29-.2.41.41,0,0,0-.35.09l-5.95,4.91-1.82,1a1.71,1.71,0,0,0-.78,1.93l-.42.24a1.27,1.27,0,0,0-.47,1.74,1.23,1.23,0,0,0,.77.6,1.24,1.24,0,0,0,.33,0,1.28,1.28,0,0,0,.64-.17l.43-.24a1.65,1.65,0,0,0,.74.44,1.74,1.74,0,0,0,.45.06,1.69,1.69,0,0,0,.85-.23l.37-.21.85,1.48a1.28,1.28,0,0,0,2.21-1.28h0l-.78-1.35,6.38-2.39a.43.43,0,0,0,.25-.26.36.36,0,0,0,0-.35Zm-10.05,7.27a.4.4,0,0,1-.32,0,.36.36,0,0,1-.26-.19.45.45,0,0,1,0-.32.44.44,0,0,1,.2-.26l.37-.22.43.74Zm5.6,1.19a.47.47,0,0,1,0,.33.41.41,0,0,1-.2.25.42.42,0,0,1-.58-.15l-.85-1.48.71-.4h0Z"/><rect class="cls-11" x="157.58" y="253.48" width="12.91" height="12.91" rx="2.35"/><path class="cls-12" d="M373.48,436.37H338.27a1.81,1.81,0,0,0-1.82,1.82V464.9a.61.61,0,0,0,.61.61h13.82l-1,4.85h-1.32a.61.61,0,0,0-.61.61v1.82h-1.21V474H365v-1.21h-1.22V471a.6.6,0,0,0-.6-.61h-1.33l-1-4.85h13.83a.61.61,0,0,0,.61-.61V438.19A1.82,1.82,0,0,0,373.48,436.37Zm-12.14,35.21h1.21v1.21H349.2v-1.21h12.14Zm-10.19-1.22,1-4.85h7.5l1,4.85Zm22.93-6.07H337.66v-5.46h36.42Zm-33.38-6.68v-17h30.35v17H340.7Zm33.38,0h-1.82V440a.61.61,0,0,0-.6-.61H340.09a.61.61,0,0,0-.61.61v17.6h-1.82V438.19a.61.61,0,0,1,.61-.61h35.21a.6.6,0,0,1,.6.61Z"/><path class="cls-7" d="M352.4,449h-9.61a.78.78,0,0,1-.77-.78V442.8a.77.77,0,0,1,.77-.77h9.61a.76.76,0,0,1,.77.77v5.43A.77.77,0,0,1,352.4,449ZM343,448h9.21v-5H343Z"/><path class="cls-7" d="M368.9,449H354.6a.78.78,0,0,1-.77-.78V442.8a.77.77,0,0,1,.77-.77h14.3a.77.77,0,0,1,.78.77v5.43A.78.78,0,0,1,368.9,449Zm-14.1-1h13.9v-5H354.8Z"/><path class="cls-7" d="M368.9,456.63H347.57a.77.77,0,0,1-.77-.78v-5.23a.77.77,0,0,1,.77-.77H368.9a.78.78,0,0,1,.78.77v5.23A.78.78,0,0,1,368.9,456.63Zm-21.13-1H368.7v-4.83H347.77Z"/><rect class="cls-7" x="348.92" y="450.47" width="0.97" height="5.35"/><rect class="cls-7" x="350.39" y="450.47" width="0.97" height="5.35"/><rect class="cls-7" x="351.87" y="450.47" width="0.97" height="5.35"/><rect class="cls-7" x="354.38" y="450.47" width="0.97" height="5.35"/><rect class="cls-7" x="356.44" y="450.47" width="0.97" height="5.35"/><rect class="cls-7" x="359.73" y="450.47" width="0.97" height="5.35"/><rect class="cls-7" x="361.34" y="450.47" width="0.97" height="5.35"/><rect class="cls-7" x="362.96" y="450.47" width="0.97" height="5.35"/><rect class="cls-7" x="365.9" y="450.47" width="0.97" height="5.35"/><path class="cls-12" d="M256.42,436.37H221.21a1.82,1.82,0,0,0-1.82,1.82V464.9a.61.61,0,0,0,.61.61h13.83l-1,4.85h-1.32a.61.61,0,0,0-.61.61v1.82h-1.21V474h18.21v-1.21h-1.21V471a.61.61,0,0,0-.61-.61h-1.32l-1-4.85h13.83a.61.61,0,0,0,.61-.61V438.19A1.82,1.82,0,0,0,256.42,436.37Zm-12.14,35.21h1.21v1.21H232.14v-1.21h12.14Zm-10.19-1.22,1-4.85h7.51l1,4.85ZM257,464.29H220.6v-5.46H257Zm-33.39-6.68v-17H254v17H223.64Zm33.39,0H255.2V440a.61.61,0,0,0-.6-.61H223a.61.61,0,0,0-.6.61v17.6H220.6V438.19a.61.61,0,0,1,.61-.61h35.21a.61.61,0,0,1,.61.61Z"/><path class="cls-7" d="M235.34,449h-9.6a.78.78,0,0,1-.78-.78V442.8a.77.77,0,0,1,.78-.77h9.6a.77.77,0,0,1,.78.77v5.43A.78.78,0,0,1,235.34,449Zm-9.4-1h9.2v-5h-9.2Z"/><path class="cls-7" d="M251.85,449h-14.3a.78.78,0,0,1-.78-.78V442.8a.77.77,0,0,1,.78-.77h14.3a.77.77,0,0,1,.77.77v5.43A.78.78,0,0,1,251.85,449Zm-14.1-1h13.9v-5h-13.9Z"/><path class="cls-7" d="M251.85,456.63H230.51a.78.78,0,0,1-.77-.78v-5.23a.78.78,0,0,1,.77-.77h21.34a.78.78,0,0,1,.77.77v5.23A.78.78,0,0,1,251.85,456.63Zm-21.14-1h20.94v-4.83H230.71Z"/><rect class="cls-7" x="231.86" y="450.47" width="0.97" height="5.35"/><rect class="cls-7" x="233.34" y="450.47" width="0.97" height="5.35"/><rect class="cls-7" x="234.81" y="450.47" width="0.97" height="5.35"/><rect class="cls-7" x="237.32" y="450.47" width="0.97" height="5.35"/><rect class="cls-7" x="239.38" y="450.47" width="0.97" height="5.35"/><rect class="cls-7" x="242.67" y="450.47" width="0.97" height="5.35"/><rect class="cls-7" x="244.29" y="450.47" width="0.97" height="5.35"/><rect class="cls-7" x="245.9" y="450.47" width="0.97" height="5.35"/><rect class="cls-7" x="248.85" y="450.47" width="0.97" height="5.35"/><path class="cls-12" d="M355.87,468.58a1.65,1.65,0,0,0,0,3.29,1.65,1.65,0,1,0,0-3.29Zm0,2.19a.55.55,0,1,1,0-1.1.55.55,0,1,1,0,1.1Z"/><path class="cls-12" d="M238.81,468.58a1.65,1.65,0,1,0,1.65,1.64A1.64,1.64,0,0,0,238.81,468.58Zm0,2.19a.55.55,0,1,1,.55-.55A.55.55,0,0,1,238.81,470.77Z"/></svg>