<svg class="m-0 p-0" width="156" height="65" viewBox="0 0 156 65" fill="none" xmlns="http://www.w3.org/2000/svg">
  <g clip-path="url(#clip0)">
  <path d="M74.4222 48.2493C73.9949 47.0914 73.54 46.9425 72.4124 47.4222C71.3207 47.8769 70.154 48.1246 68.9717 48.1528C63.4578 48.3072 57.9438 48.3762 52.4299 48.4285C51.465 48.4285 51.0321 48.7566 50.8833 49.7243C50.6076 51.4833 50.3925 53.2753 49.8577 54.9626C47.8864 61.174 41.1843 64.6561 36.423 64.0826C36.6739 62.1252 36.8972 60.2228 37.1646 58.3509C37.5561 55.5939 37.9669 52.8369 38.397 50.08C38.5982 48.7869 37.8731 48.6767 36.8558 48.7015C26.4731 48.8228 16.0885 48.9266 5.70212 49.013C5.19793 49.0368 4.69263 49.0091 4.19407 48.9303C1.66317 48.4313 1.05388 47.3506 0.574171 44.2435C0.210252 41.8835 0.976688 40.4388 2.70806 38.8646C13.5705 29.0002 24.2923 19.0255 35.0472 9.07282C37.9807 6.35996 40.8644 3.58921 43.8392 0.923221C44.4447 0.405828 45.2028 0.10082 45.9979 0.0547757C49.9018 -0.0306903 53.8001 0.00239331 57.9052 0.00239331C57.806 1.08864 57.7619 2.06461 57.6295 3.03506C56.4661 11.0303 55.2723 19.0255 54.1061 27.0207C53.5547 30.8611 53.0309 34.7071 52.4878 38.5503C52.383 39.2782 52.4878 39.9288 53.3535 39.9288C59.1762 39.9536 64.9961 39.9288 71.2269 39.9288L74.4222 48.2493ZM43.74 13.8672L15.9608 40.0915C16.1675 40.1605 16.3796 40.2121 16.5949 40.2459C23.9339 40.1631 31.272 40.0814 38.6092 40.0005C39.6211 40.0005 39.9464 39.4491 40.0677 38.5531C40.5777 34.8505 41.096 31.1479 41.6474 27.4535C42.3119 23.0038 43.0149 18.5595 43.74 13.8672Z" fill="#2C3365"/>
  <path d="M62.2395 20.3193L78.5332 64.1469H81.6127L98.5543 20.3193H94.3168L81.7754 54.3017L67.9574 20.3193H62.2395Z" fill="#FE6B60"/>
  <path d="M94.5291 48.8566C95.7994 48.6487 97.085 48.5482 98.3723 48.5561C100.346 48.5561 101.791 49.0165 102.712 49.8436C103.155 50.2553 103.506 50.7571 103.739 51.3154C103.972 51.8737 104.084 52.4754 104.065 53.0803C104.065 54.4808 103.652 55.5836 102.872 56.3887C101.791 57.5135 100.093 58.0897 98.1407 58.0897C97.6014 58.106 97.062 58.0597 96.5334 57.9519V64.1495H94.5373L94.5291 48.8566ZM96.5251 56.317C97.0675 56.4401 97.6232 56.4948 98.1793 56.4796C100.589 56.4796 102.058 55.2859 102.058 53.1961C102.058 51.1063 100.589 50.1414 98.4081 50.1414C97.7764 50.1242 97.1448 50.1778 96.5251 50.3013V56.317Z" fill="#2C3365"/>
  <path d="M109.014 48.6719H111.035V62.4705H117.652V64.1467H109.014V48.6719Z" fill="#2C3365"/>
  <path d="M123.342 48.6719V57.8553C123.342 61.3016 124.881 62.771 126.946 62.771C129.22 62.771 130.712 61.2547 130.712 57.8553V48.6719H132.732V57.7175C132.732 62.4705 130.229 64.4004 126.877 64.4004C123.709 64.4004 121.321 62.6084 121.321 57.7837V48.6719H123.342Z" fill="#2C3365"/>
  <path d="M138.241 61.7119C139.31 62.3739 140.543 62.7243 141.8 62.7237C143.843 62.7237 145.037 61.643 145.037 60.0825C145.037 58.6599 144.21 57.8108 142.123 57.0306C139.597 56.1097 138.034 54.7781 138.034 52.6194C138.034 50.2071 140.033 48.415 143.041 48.415C144.601 48.415 145.773 48.7845 146.437 49.1732L145.886 50.8053C144.997 50.3036 143.99 50.0494 142.969 50.0692C140.857 50.0692 140.052 51.3319 140.052 52.3878C140.052 53.8352 140.995 54.5465 143.129 55.3736C145.748 56.3827 147.055 57.6454 147.055 59.9199C147.055 62.3074 145.31 64.3972 141.659 64.3972C140.168 64.3972 138.536 63.9368 137.711 63.3854L138.241 61.7119Z" fill="#2C3365"/>
  <path d="M151.13 34.6445H148.114V46.6511H151.13V34.6445Z" fill="#FE6B60"/>
  <path d="M155.624 42.1572V39.1411H143.617V42.1572H155.624Z" fill="#FE6B60"/>
  <path d="M84.4303 34.4955L79.0901 37.1008V31.8901L84.4303 34.4955Z" fill="#2C3365"/>
  </g>
  <defs>
  <clipPath id="clip0">
  <rect width="155.123" height="64.4" fill="white" transform="translate(0.5)"/>
  </clipPath>
  </defs>
  </svg>