<svg xmlns="http://www.w3.org/2000/svg" viewBox="0 0 378.11 333.41"><title>Asset 2</title><g id="Layer_2" data-name="Layer 2"><g id="Layer_1-2" data-name="Layer 1"><path d="M268.78,175c-1.55-4.2-3.21-4.74-7.29-3A34.62,34.62,0,0,1,249,174.68c-20,.56-40,.81-59.94,1-3.5,0-5.07,1.19-5.61,4.7-1,6.38-1.78,12.88-3.72,19-7.16,22.53-31.46,35.16-48.74,33.08.92-7.1,1.72-14,2.69-20.79q2.15-15,4.48-30c.73-4.69-1.9-5.09-5.6-5q-56.48.66-113,1.13a27,27,0,0,1-5.48-.3C5,175.6,2.73,171.68,1,160.42c-1.32-8.56,1.46-13.8,7.74-19.51C48.06,105.18,87,69,126,32.9,136.6,23.06,147.05,13,157.84,3.34A13.26,13.26,0,0,1,165.71.19C179.84-.12,194,0,208.87,0c-.36,3.94-.52,7.48-1,11-4.23,29-8.55,58-12.78,87-2,13.93-3.9,27.88-5.88,41.82-.37,2.64,0,5,3.15,5,21.11.09,42.22,0,64.83,0M157.48,50.29,56.73,145.41A14.46,14.46,0,0,0,59,146q39.93-.45,79.86-.89c3.67,0,4.85-2,5.29-5.25C146,126.4,147.89,113,149.9,99.57,152.31,83.43,154.86,67.31,157.48,50.29Z" style="fill:#fff"/><polygon points="224.62 73.7 283.71 232.67 294.89 232.67 356.33 73.7 340.97 73.7 295.48 196.96 245.35 73.7 224.62 73.7" style="fill:#fe6b60"/><path d="M0,250.35a123.64,123.64,0,0,1,20.49-1.59c10.55,0,18.28,2.45,23.18,6.87,4.42,3.92,7.24,9.93,7.24,17.3s-2.2,13.37-6.38,17.66c-5.76,6-14.84,9.08-25.27,9.08a36.42,36.42,0,0,1-8.59-.74v33.13H0Zm10.67,39.87a35.51,35.51,0,0,0,8.84.86c12.88,0,20.73-6.38,20.73-17.54s-7.85-16.32-19.51-16.32a44.83,44.83,0,0,0-10.06.86Z" style="fill:#fff"/><path d="M94.59,249.37h10.8V323.1h35.33v9H94.59Z" style="fill:#fff"/><path d="M188.32,249.37v49.07c0,18.4,8.22,26.26,19.26,26.26,12.15,0,20.12-8.1,20.12-26.26V249.37h10.8v48.34c0,25.39-13.38,35.7-31.29,35.7-16.93,0-29.69-9.57-29.69-35.33V249.37Z" style="fill:#fff"/><path d="M285.12,319.05a36.14,36.14,0,0,0,19,5.4c10.92,0,17.3-5.76,17.3-14.11,0-7.6-4.42-12.14-15.58-16.31-13.5-4.91-21.84-12-21.84-23.56,0-12.88,10.67-22.45,26.75-22.45,8.34,0,14.6,2,18.15,4L326,260.78a30.66,30.66,0,0,0-15.58-3.93c-11.29,0-15.58,6.75-15.58,12.4,0,7.72,5,11.53,16.44,15.94,14,5.4,21,12.15,21,24.29,0,12.76-9.33,23.93-28.83,23.93-8,0-16.69-2.46-21.11-5.4Z" style="fill:#fff"/><rect x="350.87" y="194.83" width="10.94" height="43.55" style="fill:#fe6b60"/><rect x="350.87" y="194.83" width="10.94" height="43.55" transform="translate(572.94 -139.73) rotate(90)" style="fill:#fe6b60"/><polygon points="304.84 120.53 285.48 129.98 285.48 111.08 304.84 120.53" style="fill:#fff"/></g></g></svg>