<svg width="495" height="145" viewBox="0 0 495 145" fill="none" xmlns="http://www.w3.org/2000/svg">
<path d="M36.1599 28.2363L28.6599 7.23633H31.6599L37.7499 24.7563L43.8099 7.23633H46.8399L39.3099 28.2363H36.1599ZM49.7668 10.5063C49.2668 10.5063 48.8468 10.3363 48.5068 9.99633C48.1668 9.65633 47.9968 9.24633 47.9968 8.76633C47.9968 8.28633 48.1668 7.87633 48.5068 7.53633C48.8468 7.17633 49.2668 6.99633 49.7668 6.99633C50.2468 6.99633 50.6568 7.17633 50.9968 7.53633C51.3368 7.87633 51.5068 8.28633 51.5068 8.76633C51.5068 9.24633 51.3368 9.65633 50.9968 9.99633C50.6568 10.3363 50.2468 10.5063 49.7668 10.5063ZM48.4468 28.2363V13.2363H51.0568V28.2363H48.4468ZM57.2593 17.2863C57.2593 17.8663 57.5493 18.3363 58.1293 18.6963C58.7093 19.0363 59.4093 19.3163 60.2293 19.5363C61.0493 19.7363 61.8693 19.9763 62.6893 20.2563C63.5093 20.5163 64.2093 20.9763 64.7893 21.6363C65.3693 22.2763 65.6593 23.1063 65.6593 24.1263C65.6593 25.4863 65.1293 26.5763 64.0693 27.3963C63.0293 28.2163 61.6893 28.6263 60.0493 28.6263C58.5893 28.6263 57.3393 28.3063 56.2993 27.6663C55.2593 27.0263 54.5193 26.1763 54.0793 25.1163L56.3293 23.8263C56.5693 24.5463 57.0193 25.1163 57.6793 25.5363C58.3393 25.9563 59.1293 26.1663 60.0493 26.1663C60.9093 26.1663 61.6193 26.0063 62.1793 25.6863C62.7393 25.3463 63.0193 24.8263 63.0193 24.1263C63.0193 23.5463 62.7293 23.0863 62.1493 22.7463C61.5693 22.3863 60.8693 22.1063 60.0493 21.9063C59.2293 21.6863 58.4093 21.4363 57.5893 21.1563C56.7693 20.8763 56.0693 20.4163 55.4893 19.7763C54.9093 19.1363 54.6193 18.3163 54.6193 17.3163C54.6193 16.0163 55.1193 14.9463 56.1193 14.1063C57.1393 13.2663 58.4093 12.8463 59.9293 12.8463C61.1493 12.8463 62.2293 13.1263 63.1693 13.6863C64.1293 14.2263 64.8493 14.9863 65.3293 15.9663L63.1393 17.1963C62.5993 15.9163 61.5293 15.2763 59.9293 15.2763C59.1893 15.2763 58.5593 15.4563 58.0393 15.8163C57.5193 16.1563 57.2593 16.6463 57.2593 17.2863ZM69.923 10.5063C69.423 10.5063 69.003 10.3363 68.663 9.99633C68.323 9.65633 68.153 9.24633 68.153 8.76633C68.153 8.28633 68.323 7.87633 68.663 7.53633C69.003 7.17633 69.423 6.99633 69.923 6.99633C70.403 6.99633 70.813 7.17633 71.153 7.53633C71.493 7.87633 71.663 8.28633 71.663 8.76633C71.663 9.24633 71.493 9.65633 71.153 9.99633C70.813 10.3363 70.403 10.5063 69.923 10.5063ZM68.603 28.2363V13.2363H71.213V28.2363H68.603ZM87.8548 26.3463C86.3148 27.8663 84.4448 28.6263 82.2448 28.6263C80.0448 28.6263 78.1748 27.8663 76.6348 26.3463C75.1148 24.8263 74.3548 22.9563 74.3548 20.7363C74.3548 18.5163 75.1148 16.6463 76.6348 15.1263C78.1748 13.6063 80.0448 12.8463 82.2448 12.8463C84.4448 12.8463 86.3148 13.6063 87.8548 15.1263C89.3948 16.6463 90.1648 18.5163 90.1648 20.7363C90.1648 22.9563 89.3948 24.8263 87.8548 26.3463ZM82.2448 26.0763C83.7448 26.0763 85.0048 25.5663 86.0248 24.5463C87.0448 23.5263 87.5548 22.2563 87.5548 20.7363C87.5548 19.2163 87.0448 17.9463 86.0248 16.9263C85.0048 15.9063 83.7448 15.3963 82.2448 15.3963C80.7648 15.3963 79.5148 15.9063 78.4948 16.9263C77.4748 17.9463 76.9648 19.2163 76.9648 20.7363C76.9648 22.2563 77.4748 23.5263 78.4948 24.5463C79.5148 25.5663 80.7648 26.0763 82.2448 26.0763ZM100.712 12.8463C102.472 12.8463 103.882 13.4063 104.942 14.5263C106.002 15.6263 106.532 17.1263 106.532 19.0263V28.2363H103.922V19.1763C103.922 17.9563 103.592 17.0163 102.932 16.3563C102.272 15.6763 101.362 15.3363 100.202 15.3363C98.9017 15.3363 97.8517 15.7463 97.0517 16.5663C96.2517 17.3663 95.8517 18.6063 95.8517 20.2863V28.2363H93.2417V13.2363H95.8517V15.3963C96.9117 13.6963 98.5317 12.8463 100.712 12.8463Z" fill="white"/>
<path d="M159.368 21.297C159.954 20.7112 159.954 19.7615 159.368 19.1757L149.822 9.62973C149.237 9.04394 148.287 9.04394 147.701 9.62973C147.115 10.2155 147.115 11.1653 147.701 11.751L156.186 20.2363L147.701 28.7216C147.115 29.3074 147.115 30.2571 147.701 30.8429C148.287 31.4287 149.237 31.4287 149.822 30.8429L159.368 21.297ZM128.308 21.7363H158.308V18.7363H128.308V21.7363Z" fill="#FD6B60"/>
<path d="M186.52 28.2363L179.02 7.23633H182.02L188.11 24.7563L194.17 7.23633H197.2L189.67 28.2363H186.52ZM199.436 21.9363C199.696 23.2763 200.306 24.3163 201.266 25.0563C202.246 25.7963 203.446 26.1663 204.866 26.1663C206.846 26.1663 208.286 25.4363 209.186 23.9763L211.406 25.2363C209.946 27.4963 207.746 28.6263 204.806 28.6263C202.426 28.6263 200.486 27.8863 198.986 26.4063C197.506 24.9063 196.766 23.0163 196.766 20.7363C196.766 18.4763 197.496 16.5963 198.956 15.0963C200.416 13.5963 202.306 12.8463 204.626 12.8463C206.826 12.8463 208.616 13.6263 209.996 15.1863C211.396 16.7263 212.096 18.5863 212.096 20.7663C212.096 21.1463 212.066 21.5363 212.006 21.9363H199.436ZM204.626 15.3063C203.226 15.3063 202.066 15.7063 201.146 16.5063C200.226 17.2863 199.656 18.3363 199.436 19.6563H209.456C209.236 18.2363 208.676 17.1563 207.776 16.4163C206.876 15.6763 205.826 15.3063 204.626 15.3063ZM222.566 12.8463C224.326 12.8463 225.736 13.4063 226.796 14.5263C227.856 15.6263 228.386 17.1263 228.386 19.0263V28.2363H225.776V19.1763C225.776 17.9563 225.446 17.0163 224.786 16.3563C224.126 15.6763 223.216 15.3363 222.056 15.3363C220.756 15.3363 219.706 15.7463 218.906 16.5663C218.106 17.3663 217.706 18.6063 217.706 20.2863V28.2363H215.096V13.2363H217.706V15.3963C218.766 13.6963 220.386 12.8463 222.566 12.8463ZM240.19 15.7563H236.2V23.8863C236.2 24.6263 236.34 25.1563 236.62 25.4763C236.92 25.7763 237.37 25.9363 237.97 25.9563C238.57 25.9563 239.31 25.9363 240.19 25.8963V28.2363C237.91 28.5363 236.24 28.3563 235.18 27.6963C234.12 27.0163 233.59 25.7463 233.59 23.8863V15.7563H230.62V13.2363H233.59V9.81633L236.2 9.03633V13.2363H240.19V15.7563ZM253.718 13.2363H256.328V28.2363H253.718V26.0763C252.658 27.7763 251.038 28.6263 248.858 28.6263C247.098 28.6263 245.688 28.0763 244.628 26.9763C243.568 25.8563 243.038 24.3463 243.038 22.4463V13.2363H245.648V22.2963C245.648 23.5163 245.978 24.4663 246.638 25.1463C247.298 25.8063 248.208 26.1363 249.368 26.1363C250.668 26.1363 251.718 25.7363 252.518 24.9363C253.318 24.1163 253.718 22.8663 253.718 21.1863V13.2363ZM262.911 15.7563C263.771 13.8963 265.331 12.9663 267.591 12.9663V15.6963C266.311 15.6363 265.211 15.9763 264.291 16.7163C263.371 17.4563 262.911 18.6463 262.911 20.2863V28.2363H260.301V13.2363H262.911V15.7563ZM271.155 21.9363C271.415 23.2763 272.025 24.3163 272.985 25.0563C273.965 25.7963 275.165 26.1663 276.585 26.1663C278.565 26.1663 280.005 25.4363 280.905 23.9763L283.125 25.2363C281.665 27.4963 279.465 28.6263 276.525 28.6263C274.145 28.6263 272.205 27.8863 270.705 26.4063C269.225 24.9063 268.485 23.0163 268.485 20.7363C268.485 18.4763 269.215 16.5963 270.675 15.0963C272.135 13.5963 274.025 12.8463 276.345 12.8463C278.545 12.8463 280.335 13.6263 281.715 15.1863C283.115 16.7263 283.815 18.5863 283.815 20.7663C283.815 21.1463 283.785 21.5363 283.725 21.9363H271.155ZM276.345 15.3063C274.945 15.3063 273.785 15.7063 272.865 16.5063C271.945 17.2863 271.375 18.3363 271.155 19.6563H281.175C280.955 18.2363 280.395 17.1563 279.495 16.4163C278.595 15.6763 277.545 15.3063 276.345 15.3063Z" fill="white"/>
<path d="M336.368 21.297C336.954 20.7112 336.954 19.7615 336.368 19.1757L326.822 9.62973C326.237 9.04394 325.287 9.04394 324.701 9.62973C324.115 10.2155 324.115 11.1653 324.701 11.751L333.186 20.2363L324.701 28.7216C324.115 29.3074 324.115 30.2571 324.701 30.8429C325.287 31.4287 326.237 31.4287 326.822 30.8429L336.368 21.297ZM305.308 21.7363H335.308V18.7363H305.308V21.7363Z" fill="#FD6B60"/>
<path d="M363.264 28.2363L355.764 7.23633H358.764L364.854 24.7563L370.914 7.23633H373.944L366.414 28.2363H363.264ZM376.871 10.5063C376.371 10.5063 375.951 10.3363 375.611 9.99633C375.271 9.65633 375.101 9.24633 375.101 8.76633C375.101 8.28633 375.271 7.87633 375.611 7.53633C375.951 7.17633 376.371 6.99633 376.871 6.99633C377.351 6.99633 377.761 7.17633 378.101 7.53633C378.441 7.87633 378.611 8.28633 378.611 8.76633C378.611 9.24633 378.441 9.65633 378.101 9.99633C377.761 10.3363 377.351 10.5063 376.871 10.5063ZM375.551 28.2363V13.2363H378.161V28.2363H375.551ZM384.364 17.2863C384.364 17.8663 384.654 18.3363 385.234 18.6963C385.814 19.0363 386.514 19.3163 387.334 19.5363C388.154 19.7363 388.974 19.9763 389.794 20.2563C390.614 20.5163 391.314 20.9763 391.894 21.6363C392.474 22.2763 392.764 23.1063 392.764 24.1263C392.764 25.4863 392.234 26.5763 391.174 27.3963C390.134 28.2163 388.794 28.6263 387.154 28.6263C385.694 28.6263 384.444 28.3063 383.404 27.6663C382.364 27.0263 381.624 26.1763 381.184 25.1163L383.434 23.8263C383.674 24.5463 384.124 25.1163 384.784 25.5363C385.444 25.9563 386.234 26.1663 387.154 26.1663C388.014 26.1663 388.724 26.0063 389.284 25.6863C389.844 25.3463 390.124 24.8263 390.124 24.1263C390.124 23.5463 389.834 23.0863 389.254 22.7463C388.674 22.3863 387.974 22.1063 387.154 21.9063C386.334 21.6863 385.514 21.4363 384.694 21.1563C383.874 20.8763 383.174 20.4163 382.594 19.7763C382.014 19.1363 381.724 18.3163 381.724 17.3163C381.724 16.0163 382.224 14.9463 383.224 14.1063C384.244 13.2663 385.514 12.8463 387.034 12.8463C388.254 12.8463 389.334 13.1263 390.274 13.6863C391.234 14.2263 391.954 14.9863 392.434 15.9663L390.244 17.1963C389.704 15.9163 388.634 15.2763 387.034 15.2763C386.294 15.2763 385.664 15.4563 385.144 15.8163C384.624 16.1563 384.364 16.6463 384.364 17.2863ZM397.028 10.5063C396.528 10.5063 396.108 10.3363 395.768 9.99633C395.428 9.65633 395.258 9.24633 395.258 8.76633C395.258 8.28633 395.428 7.87633 395.768 7.53633C396.108 7.17633 396.528 6.99633 397.028 6.99633C397.508 6.99633 397.918 7.17633 398.258 7.53633C398.598 7.87633 398.768 8.28633 398.768 8.76633C398.768 9.24633 398.598 9.65633 398.258 9.99633C397.918 10.3363 397.508 10.5063 397.028 10.5063ZM395.708 28.2363V13.2363H398.318V28.2363H395.708ZM410.579 12.8463C412.679 12.8463 414.469 13.6163 415.949 15.1563C417.429 16.6763 418.169 18.5363 418.169 20.7363C418.169 22.9363 417.429 24.8063 415.949 26.3463C414.469 27.8663 412.679 28.6263 410.579 28.6263C408.099 28.6263 406.209 27.6363 404.909 25.6563V28.2363H402.299V7.23633H404.909V15.8163C406.209 13.8363 408.099 12.8463 410.579 12.8463ZM410.249 26.1063C411.749 26.1063 413.009 25.5963 414.029 24.5763C415.049 23.5363 415.559 22.2563 415.559 20.7363C415.559 19.2163 415.049 17.9463 414.029 16.9263C413.009 15.8863 411.749 15.3663 410.249 15.3663C408.729 15.3663 407.459 15.8863 406.439 16.9263C405.419 17.9463 404.909 19.2163 404.909 20.7363C404.909 22.2563 405.419 23.5363 406.439 24.5763C407.459 25.5963 408.729 26.1063 410.249 26.1063ZM422.604 10.5063C422.104 10.5063 421.684 10.3363 421.344 9.99633C421.004 9.65633 420.834 9.24633 420.834 8.76633C420.834 8.28633 421.004 7.87633 421.344 7.53633C421.684 7.17633 422.104 6.99633 422.604 6.99633C423.084 6.99633 423.494 7.17633 423.834 7.53633C424.174 7.87633 424.344 8.28633 424.344 8.76633C424.344 9.24633 424.174 9.65633 423.834 9.99633C423.494 10.3363 423.084 10.5063 422.604 10.5063ZM421.284 28.2363V13.2363H423.894V28.2363H421.284ZM427.876 28.2363V6.33633H430.486V28.2363H427.876ZM435.787 10.5063C435.287 10.5063 434.867 10.3363 434.527 9.99633C434.187 9.65633 434.017 9.24633 434.017 8.76633C434.017 8.28633 434.187 7.87633 434.527 7.53633C434.867 7.17633 435.287 6.99633 435.787 6.99633C436.267 6.99633 436.677 7.17633 437.017 7.53633C437.357 7.87633 437.527 8.28633 437.527 8.76633C437.527 9.24633 437.357 9.65633 437.017 9.99633C436.677 10.3363 436.267 10.5063 435.787 10.5063ZM434.467 28.2363V13.2363H437.077V28.2363H434.467ZM449.219 15.7563H445.229V23.8863C445.229 24.6263 445.369 25.1563 445.649 25.4763C445.949 25.7763 446.399 25.9363 446.999 25.9563C447.599 25.9563 448.339 25.9363 449.219 25.8963V28.2363C446.939 28.5363 445.269 28.3563 444.209 27.6963C443.149 27.0163 442.619 25.7463 442.619 23.8863V15.7563H439.649V13.2363H442.619V9.81633L445.229 9.03633V13.2363H449.219V15.7563ZM463.101 13.2363H465.891L459.771 29.1663C459.131 30.8663 458.231 32.1563 457.071 33.0363C455.931 33.9363 454.611 34.3363 453.111 34.2363V31.8063C454.951 31.9463 456.301 30.9263 457.161 28.7463L457.431 28.1763L450.891 13.2363H453.681L458.781 24.9963L463.101 13.2363Z" fill="white"/>
<path d="M32.8445 88.3543L31.8396 89.4679L32.8445 88.3543ZM154.793 128.283C155.417 127.737 155.481 126.79 154.936 126.166L146.053 116C145.508 115.376 144.561 115.312 143.937 115.857C143.313 116.402 143.249 117.35 143.794 117.974L151.69 127.01L142.653 134.906C142.029 135.451 141.966 136.399 142.511 137.022C143.056 137.646 144.003 137.71 144.627 137.165L154.793 128.283ZM8.47168 60.2363C7.2649 61.1272 7.26501 61.1274 7.26517 61.1276C7.26529 61.1277 7.2655 61.128 7.26575 61.1284C7.26623 61.129 7.26693 61.13 7.26782 61.1312C7.26962 61.1336 7.27223 61.1371 7.27566 61.1418C7.28251 61.151 7.29262 61.1647 7.3059 61.1826C7.33248 61.2185 7.3718 61.2714 7.42337 61.3407C7.52651 61.4792 7.67865 61.6828 7.87583 61.9451C8.27016 62.4696 8.84471 63.2286 9.56769 64.1695C11.0134 66.0509 13.054 68.6614 15.4351 71.5792C20.1836 77.3982 26.3361 84.5016 31.8396 89.4679L33.8495 87.2407C28.5239 82.435 22.49 75.4794 17.7594 69.6824C15.4008 66.7923 13.3787 64.2055 11.9465 62.3416C11.2306 61.4099 10.6624 60.6593 10.2738 60.1423C10.0794 59.8839 9.93003 59.6838 9.82948 59.5488C9.77921 59.4813 9.74116 59.4301 9.71582 59.3959C9.70315 59.3788 9.69366 59.366 9.68742 59.3576C9.68429 59.3533 9.68198 59.3502 9.68048 59.3482C9.67973 59.3472 9.67919 59.3464 9.67885 59.346C9.67868 59.3457 9.67858 59.3456 9.6785 59.3455C9.67845 59.3454 9.67846 59.3454 8.47168 60.2363ZM31.8396 89.4679C50.5062 106.312 81.0909 116.074 106.772 121.64C119.653 124.432 131.378 126.183 139.883 127.237C144.136 127.764 147.587 128.117 149.976 128.338C151.171 128.449 152.1 128.526 152.732 128.576C153.049 128.602 153.29 128.62 153.454 128.632C153.536 128.638 153.598 128.642 153.64 128.645C153.661 128.647 153.677 128.648 153.688 128.648C153.693 128.649 153.698 128.649 153.701 128.649C153.702 128.649 153.703 128.649 153.704 128.65C153.705 128.65 153.705 128.65 153.806 127.153C153.907 125.656 153.907 125.656 153.907 125.656C153.906 125.656 153.905 125.656 153.904 125.656C153.902 125.656 153.899 125.656 153.894 125.655C153.884 125.655 153.87 125.654 153.85 125.652C153.811 125.65 153.752 125.645 153.673 125.64C153.515 125.628 153.28 125.61 152.97 125.586C152.35 125.537 151.433 125.46 150.252 125.351C147.89 125.132 144.471 124.783 140.252 124.26C131.812 123.214 120.178 121.476 107.407 118.708C81.7829 113.155 51.8867 103.517 33.8495 87.2407L31.8396 89.4679Z" fill="#FD6B60"/>
<path d="M193.76 129.994C191.66 132.114 189.09 133.174 186.05 133.174C183.01 133.174 180.44 132.114 178.34 129.994C176.24 127.874 175.19 125.304 175.19 122.284C175.19 119.244 176.24 116.674 178.34 114.574C180.44 112.454 183.01 111.394 186.05 111.394C189.09 111.394 191.66 112.454 193.76 114.574C195.88 116.674 196.94 119.244 196.94 122.284C196.94 125.304 195.88 127.874 193.76 129.994ZM180.26 128.104C181.82 129.664 183.75 130.444 186.05 130.444C188.35 130.444 190.27 129.664 191.81 128.104C193.37 126.524 194.15 124.584 194.15 122.284C194.15 119.964 193.37 118.024 191.81 116.464C190.27 114.884 188.35 114.094 186.05 114.094C183.75 114.094 181.82 114.884 180.26 116.464C178.72 118.024 177.95 119.964 177.95 122.284C177.95 124.584 178.72 126.524 180.26 128.104ZM210.52 117.784H213.13V132.784H210.52V130.624C209.46 132.324 207.84 133.174 205.66 133.174C203.9 133.174 202.49 132.624 201.43 131.524C200.37 130.404 199.84 128.894 199.84 126.994V117.784H202.45V126.844C202.45 128.064 202.78 129.014 203.44 129.694C204.1 130.354 205.01 130.684 206.17 130.684C207.47 130.684 208.52 130.284 209.32 129.484C210.12 128.664 210.52 127.414 210.52 125.734V117.784ZM219.714 120.304C220.574 118.444 222.134 117.514 224.394 117.514V120.244C223.114 120.184 222.014 120.524 221.094 121.264C220.174 122.004 219.714 123.194 219.714 124.834V132.784H217.104V117.784H219.714V120.304ZM244.948 117.784H247.768L241.768 132.784H238.708L232.708 117.784H235.528L240.238 129.994L244.948 117.784ZM261.809 117.784H264.419V132.784H261.809V130.204C260.509 132.184 258.619 133.174 256.139 133.174C254.039 133.174 252.249 132.414 250.769 130.894C249.289 129.354 248.549 127.484 248.549 125.284C248.549 123.084 249.289 121.224 250.769 119.704C252.249 118.164 254.039 117.394 256.139 117.394C258.619 117.394 260.509 118.384 261.809 120.364V117.784ZM256.469 130.654C257.989 130.654 259.259 130.144 260.279 129.124C261.299 128.084 261.809 126.804 261.809 125.284C261.809 123.764 261.299 122.494 260.279 121.474C259.259 120.434 257.989 119.914 256.469 119.914C254.969 119.914 253.709 120.434 252.689 121.474C251.669 122.494 251.159 123.764 251.159 125.284C251.159 126.804 251.669 128.084 252.689 129.124C253.709 130.144 254.969 130.654 256.469 130.654ZM268.374 132.784V110.884H270.984V132.784H268.374ZM285.315 117.784H287.925V132.784H285.315V130.624C284.255 132.324 282.635 133.174 280.455 133.174C278.695 133.174 277.285 132.624 276.225 131.524C275.165 130.404 274.635 128.894 274.635 126.994V117.784H277.245V126.844C277.245 128.064 277.575 129.014 278.235 129.694C278.895 130.354 279.805 130.684 280.965 130.684C282.265 130.684 283.315 130.284 284.115 129.484C284.915 128.664 285.315 127.414 285.315 125.734V117.784ZM293.729 126.484C293.989 127.824 294.599 128.864 295.559 129.604C296.539 130.344 297.739 130.714 299.159 130.714C301.139 130.714 302.579 129.984 303.479 128.524L305.699 129.784C304.239 132.044 302.039 133.174 299.099 133.174C296.719 133.174 294.779 132.434 293.279 130.954C291.799 129.454 291.059 127.564 291.059 125.284C291.059 123.024 291.789 121.144 293.249 119.644C294.709 118.144 296.599 117.394 298.919 117.394C301.119 117.394 302.909 118.174 304.289 119.734C305.689 121.274 306.389 123.134 306.389 125.314C306.389 125.694 306.359 126.084 306.299 126.484H293.729ZM298.919 119.854C297.519 119.854 296.359 120.254 295.439 121.054C294.519 121.834 293.949 122.884 293.729 124.204H303.749C303.529 122.784 302.969 121.704 302.069 120.964C301.169 120.224 300.119 119.854 298.919 119.854ZM311.053 121.834C311.053 122.414 311.343 122.884 311.923 123.244C312.503 123.584 313.203 123.864 314.023 124.084C314.843 124.284 315.663 124.524 316.483 124.804C317.303 125.064 318.003 125.524 318.583 126.184C319.163 126.824 319.453 127.654 319.453 128.674C319.453 130.034 318.923 131.124 317.863 131.944C316.823 132.764 315.483 133.174 313.843 133.174C312.383 133.174 311.133 132.854 310.093 132.214C309.053 131.574 308.313 130.724 307.873 129.664L310.123 128.374C310.363 129.094 310.813 129.664 311.473 130.084C312.133 130.504 312.923 130.714 313.843 130.714C314.703 130.714 315.413 130.554 315.973 130.234C316.533 129.894 316.813 129.374 316.813 128.674C316.813 128.094 316.523 127.634 315.943 127.294C315.363 126.934 314.663 126.654 313.843 126.454C313.023 126.234 312.203 125.984 311.383 125.704C310.563 125.424 309.863 124.964 309.283 124.324C308.703 123.684 308.413 122.864 308.413 121.864C308.413 120.564 308.913 119.494 309.913 118.654C310.933 117.814 312.203 117.394 313.723 117.394C314.943 117.394 316.023 117.674 316.963 118.234C317.923 118.774 318.643 119.534 319.123 120.514L316.933 121.744C316.393 120.464 315.323 119.824 313.723 119.824C312.983 119.824 312.353 120.004 311.833 120.364C311.313 120.704 311.053 121.194 311.053 121.834Z" fill="white"/>
<path d="M461.77 88.3598L462.775 89.4735L461.77 88.3598ZM339.82 128.282C339.196 127.737 339.132 126.789 339.677 126.166L348.56 116C349.105 115.376 350.053 115.312 350.677 115.857C351.3 116.402 351.364 117.35 350.819 117.974L342.923 127.01L351.959 134.906C352.583 135.451 352.647 136.399 352.102 137.023C351.557 137.646 350.609 137.71 349.985 137.165L339.82 128.282ZM486.145 60.2432C487.351 61.1341 487.351 61.1343 487.351 61.1345C487.351 61.1346 487.351 61.1349 487.35 61.1353C487.35 61.1359 487.349 61.1369 487.348 61.1381C487.347 61.1405 487.344 61.144 487.341 61.1487C487.334 61.1579 487.324 61.1716 487.31 61.1895C487.284 61.2253 487.244 61.2783 487.193 61.3476C487.09 61.486 486.937 61.6897 486.74 61.952C486.346 62.4765 485.771 63.2355 485.048 64.1763C483.603 66.0576 481.562 68.668 479.181 71.5856C474.432 77.4044 468.279 84.5075 462.775 89.4735L460.765 87.2461C466.091 82.4407 472.125 75.4855 476.856 69.6888C479.215 66.7987 481.237 64.212 482.67 62.3483C483.386 61.4166 483.954 60.666 484.342 60.1491C484.537 59.8906 484.686 59.6906 484.787 59.5556C484.837 59.4881 484.875 59.4368 484.9 59.4027C484.913 59.3856 484.923 59.3728 484.929 59.3643C484.932 59.3601 484.934 59.357 484.936 59.3549C484.937 59.3539 484.937 59.3532 484.937 59.3527C484.938 59.3525 484.938 59.3524 484.938 59.3523C484.938 59.3522 484.938 59.3522 486.145 60.2432ZM462.775 89.4735C444.108 106.317 413.522 116.077 387.841 121.642C374.96 124.433 363.235 126.184 354.73 127.237C350.476 127.764 347.026 128.117 344.637 128.338C343.442 128.448 342.513 128.526 341.88 128.576C341.564 128.601 341.322 128.619 341.159 128.631C341.077 128.637 341.015 128.642 340.973 128.645C340.952 128.646 340.936 128.647 340.925 128.648C340.919 128.648 340.915 128.649 340.912 128.649C340.911 128.649 340.91 128.649 340.909 128.649C340.908 128.649 340.907 128.649 340.807 127.153C340.706 125.656 340.706 125.656 340.706 125.656C340.707 125.656 340.707 125.656 340.709 125.656C340.711 125.656 340.714 125.655 340.719 125.655C340.729 125.654 340.743 125.653 340.763 125.652C340.802 125.649 340.861 125.645 340.94 125.639C341.098 125.628 341.333 125.61 341.643 125.586C342.263 125.536 343.18 125.46 344.361 125.351C346.722 125.132 350.142 124.783 354.361 124.26C362.802 123.215 374.435 121.477 387.206 118.71C412.831 113.158 442.727 103.522 460.765 87.2461L462.775 89.4735Z" fill="#FD6B60"/>
</svg>
