<svg width="156" height="135" viewBox="0 0 156 135" fill="none" xmlns="http://www.w3.org/2000/svg">
<g clip-path="url(#clip0)">
<path d="M6.59546 46H107.595V115H6.59546V46Z" fill="white"/>
<path d="M99.829 7.67041V30.6818H78.4683V7.67041H35.7468V30.6818H14.386V7.67041H0.145508V122.727H114.07V7.67041H99.829ZM106.949 115.057H7.26576V46.0227H106.949V115.057Z" fill="#2C3365"/>
<path d="M21.5061 0H28.6264V23.0114H21.5061V0Z" fill="#2C3365"/>
<path d="M85.5884 0H92.7086V23.0114H85.5884V0Z" fill="#2C3365"/>
<path d="M63.1455 61.3636H71.1455V69.3636H63.1455V61.3636Z" fill="#2C3365"/>
<path d="M83.3955 61.3636H91.3955V69.3636H83.3955V61.3636Z" fill="#2C3365"/>
<path d="M22.6455 78.5454H30.6455V86.5454H22.6455V78.5454Z" fill="#2C3365"/>
<path d="M42.8955 78.5454H50.8955V86.5454H42.8955V78.5454Z" fill="#FD6B60"/>
<path d="M63.1455 78.5454H71.1455V86.5454H63.1455V78.5454Z" fill="#2C3365"/>
<path d="M83.3955 78.5454H91.3955V86.5454H83.3955V78.5454Z" fill="#2C3365"/>
<path d="M22.6455 95.7273H30.6455V103.727H22.6455V95.7273Z" fill="#2C3365"/>
<path d="M42.8955 95.7273H50.8955V103.727H42.8955V95.7273Z" fill="#2C3365"/>
<path d="M63.1455 95.7273H71.1455V103.727H63.1455V95.7273Z" fill="#2C3365"/>
<path d="M83.3955 95.7273H91.3955V103.727H83.3955V95.7273Z" fill="#2C3365"/>
</g>
<path d="M126.113 49.3746L136.181 41.5351L142.893 54.2749" stroke="#FD6B60" stroke-width="5" stroke-linecap="round" stroke-linejoin="round"/>
<path d="M60.886 129.927C60.886 129.927 79.9652 67.6205 79.9652 75.5612C79.9652 67.6205 93.5131 111.552 93.5131 111.552L106.564 57.6522L126.257 104.371L135.835 44.9122" stroke="#FD6B60" stroke-width="5" stroke-linecap="round" stroke-linejoin="round"/>
<defs>
<clipPath id="clip0">
<rect width="113.924" height="122.727" fill="white" transform="translate(0.145508)"/>
</clipPath>
</defs>
</svg>
