<svg width="56" height="56" viewBox="0 0 56 56" fill="none" xmlns="http://www.w3.org/2000/svg">
<path d="M55.5 28C55.5 43.1878 43.1878 55.5 28 55.5C12.8122 55.5 0.5 43.1878 0.5 28C0.5 12.8122 12.8122 0.5 28 0.5C43.1878 0.5 55.5 12.8122 55.5 28Z" fill="#FD6B60" stroke="#FD6B60"/>
<path d="M38.0447 45.9992C36.5194 45.9992 34.3768 45.4476 31.1683 43.6554C27.2667 41.4679 24.2489 39.4483 20.3684 35.5788C16.627 31.8404 14.8063 29.4201 12.2582 24.7841C9.37946 19.5497 9.87018 16.8059 10.4187 15.6332C11.072 14.2316 12.0363 13.3933 13.2826 12.5613C13.9905 12.0976 14.7397 11.7001 15.5206 11.3738C15.5987 11.3402 15.6714 11.3082 15.7362 11.2793C16.123 11.105 16.7091 10.8418 17.4514 11.123C17.9468 11.3089 18.3891 11.6894 19.0814 12.373C20.5013 13.773 22.4415 16.891 23.1573 18.4223C23.6378 19.4544 23.9559 20.1356 23.9567 20.8997C23.9567 21.7942 23.5066 22.4841 22.9604 23.2286C22.858 23.3685 22.7564 23.5021 22.658 23.6318C22.0633 24.413 21.9328 24.6388 22.0188 25.0419C22.193 25.8521 23.4925 28.2638 25.6281 30.3943C27.7637 32.5248 30.1063 33.742 30.9198 33.9155C31.3402 34.0053 31.5707 33.8694 32.3771 33.2537C32.4928 33.1655 32.6115 33.0741 32.7358 32.9826C33.5688 32.3631 34.2267 31.9248 35.1003 31.9248H35.105C35.8653 31.9248 36.5163 32.2545 37.5946 32.7983C39.0011 33.5077 42.2135 35.4225 43.6224 36.8436C44.3077 37.5343 44.6898 37.9749 44.8766 38.4694C45.1579 39.214 44.893 39.7976 44.7203 40.1882C44.6914 40.253 44.6593 40.3241 44.6257 40.403C44.2968 41.1824 43.8969 41.9298 43.431 42.6359C42.6003 43.8781 41.7587 44.8398 40.3538 45.4937C39.6323 45.8349 38.8427 46.0078 38.0447 45.9992Z" fill="#2C3365"/>
</svg>
