<svg width="200" height="180" viewBox="0 0 200 180" fill="none" xmlns="http://www.w3.org/2000/svg">
<path d="M188.095 28.125H152.381C143.205 28.125 142.867 19.7016 142.857 18.75V14.0625C142.857 8.16562 136.238 0 123.81 0H76.3381C62.3619 0 57.2905 8.40938 57.2905 14.0625V18.7219C57.2857 19.1063 57.0619 28.125 47.619 28.125H11.9048C8.74858 28.1287 5.72276 29.3646 3.491 31.5615C1.25924 33.7583 0.00378061 36.7369 0 39.8438L0 124.219C0 130.678 5.3381 135.938 11.9048 135.938H40.4762C41.1077 135.938 41.7133 135.691 42.1598 135.251C42.6063 134.811 42.8571 134.215 42.8571 133.594C42.8571 132.972 42.6063 132.376 42.1598 131.936C41.7133 131.497 41.1077 131.25 40.4762 131.25H11.9048C7.96667 131.25 4.7619 128.095 4.7619 124.219V65.625H42.8571C39.7052 73.0489 38.0864 81.0163 38.0952 89.0625C38.0952 122.662 65.8667 150 100 150C134.133 150 161.905 122.662 161.905 89.0625C161.905 80.7609 160.195 72.8438 157.129 65.625H195.238V124.219C195.238 128.095 192.033 131.25 188.095 131.25H154.762C154.13 131.25 153.525 131.497 153.078 131.936C152.632 132.376 152.381 132.972 152.381 133.594C152.381 134.215 152.632 134.811 153.078 135.251C153.525 135.691 154.13 135.938 154.762 135.938H188.095C194.662 135.938 200 130.678 200 124.219V39.8438C200 33.3844 194.662 28.125 188.095 28.125ZM100 145.312C68.4905 145.312 42.8571 120.08 42.8571 89.0625C42.8571 58.0453 68.4905 32.8125 100 32.8125C131.51 32.8125 157.143 58.0453 157.143 89.0625C157.143 120.08 131.51 145.312 100 145.312ZM155.952 60.9375C155.613 60.9398 155.278 61.015 154.971 61.1578C144.667 41.5687 123.914 28.125 100 28.125C76.0857 28.125 55.3333 41.5687 45.0286 61.1578C44.7218 61.015 44.387 60.9398 44.0476 60.9375H4.7619V39.8438C4.7619 35.9672 7.96667 32.8125 11.9048 32.8125H47.619C58.8952 32.8125 61.9952 23.6344 62.0524 18.75V14.0625C62.0524 10.2937 65.8571 4.6875 76.3381 4.6875H123.81C133.781 4.6875 138.095 10.8938 138.095 14.0625V18.75C138.095 23.6156 141.081 32.8125 152.381 32.8125H188.095C192.033 32.8125 195.238 35.9672 195.238 39.8438V60.9375H155.952Z" fill="#FD6B60"/>
<path d="M45.2375 23.4375C45.869 23.4375 46.4746 23.1906 46.9211 22.751C47.3676 22.3115 47.6185 21.7154 47.6185 21.0938V16.4062C47.6185 12.5297 44.4137 9.375 40.4756 9.375H21.428C17.4899 9.375 14.2852 12.5297 14.2852 16.4062V21.0938C14.2852 21.7154 14.536 22.3115 14.9825 22.751C15.429 23.1906 16.0346 23.4375 16.6661 23.4375C17.2976 23.4375 17.9032 23.1906 18.3497 22.751C18.7962 22.3115 19.0471 21.7154 19.0471 21.0938V16.4062C19.0471 15.7846 19.2979 15.1885 19.7444 14.749C20.1909 14.3094 20.7965 14.0625 21.428 14.0625H40.4756C41.1071 14.0625 41.7127 14.3094 42.1592 14.749C42.6057 15.1885 42.8566 15.7846 42.8566 16.4062V21.0938C42.8566 21.7154 43.1074 22.3115 43.554 22.751C44.0005 23.1906 44.6061 23.4375 45.2375 23.4375Z" fill="white"/>
<path d="M99.9997 46.875C76.3664 46.875 57.1426 65.8031 57.1426 89.0625C57.1426 112.322 76.3664 131.25 99.9997 131.25C123.633 131.25 142.857 112.322 142.857 89.0625C142.857 65.8031 123.633 46.875 99.9997 46.875ZM99.9997 126.562C78.995 126.562 61.9045 109.739 61.9045 89.0625C61.9045 68.3859 78.995 51.5625 99.9997 51.5625C121.004 51.5625 138.095 68.3859 138.095 89.0625C138.095 109.739 121.004 126.562 99.9997 126.562Z" fill="white"/>
<path d="M102.4 63.3335V62.8335H101.9H98.8728H98.3728V63.3335V67.7215C93.7606 67.9186 89.8648 68.9186 86.7075 70.7463C82.838 72.9513 80.8527 76.0999 80.8527 80.1625C80.8527 83.5521 82.3635 86.247 85.3274 88.209C87.4601 89.6273 90.5963 90.8165 94.6987 91.796L94.7007 91.7965C96.286 92.1682 97.5107 92.4476 98.3728 92.6341V100.168C96.5178 99.933 95.1388 99.3914 94.1881 98.5853C93.1605 97.7139 92.5802 96.4884 92.4797 94.8505L92.4509 94.3811H91.9807H80H79.4952L79.5 94.8859C79.5446 99.5263 81.5193 103.111 85.3996 105.584L85.4017 105.586C88.6693 107.644 93.0057 108.752 98.3728 108.948V113.334V113.834H98.8728H101.9H102.4V113.334V108.944C107.467 108.717 111.584 107.683 114.717 105.808C118.557 103.52 120.5 100.148 120.5 95.7469C120.5 92.3949 119.012 89.7025 116.096 87.7045L116.096 87.7045L116.09 87.7007C113.958 86.2828 110.844 85.0934 106.784 84.1137L106.784 84.1136L106.775 84.1117C104.918 83.6976 103.459 83.3814 102.4 83.1633V76.8391C103.642 77.1584 104.535 77.6274 105.121 78.2157C105.781 78.8783 106.097 79.7353 106.039 80.8397L106.011 81.366H106.538H118.519H119.024L119.018 80.8605C118.974 76.7589 117.191 73.5063 113.711 71.1449L113.711 71.1448L113.702 71.139C110.707 69.1981 106.931 68.09 102.4 67.787V63.3335ZM102.4 100.137V93.5734C104.103 94.0194 105.366 94.5271 106.216 95.083C107.161 95.7018 107.519 96.325 107.519 96.9374C107.519 97.8889 107.109 98.6114 106.229 99.1486C105.396 99.657 104.135 99.9995 102.4 100.137ZM94.9862 77.3514C95.7175 76.8871 96.8296 76.5922 98.3728 76.5135V82.2845C96.8596 81.8941 95.7368 81.4604 94.9803 80.9948C94.1199 80.4653 93.8333 79.9623 93.8333 79.5132C93.8333 78.5398 94.2141 77.8416 94.9862 77.3514Z" fill="#FD6B60" stroke="white"/>
</svg>
