<svg width="136" height="136" viewBox="0 0 136 136" fill="none" xmlns="http://www.w3.org/2000/svg">
<path d="M79.4761 0.746445C68.8213 3.70959 63.0372 12.0657 59.6885 29.6075C59.445 30.9706 59.0188 31.2669 57.4967 31.2669C56.3398 31.2669 55.5483 30.9113 55.3048 30.2001C53.8436 26.111 48.9728 23.0293 44.0411 22.9701H41.1186V15.6807C41.1186 10.8212 40.8751 8.15432 40.388 7.68022C39.9618 7.26538 38.0135 6.96907 35.8216 6.96907C31.5597 6.96907 30.7682 7.62096 30.7682 11.3545C30.7682 13.3102 30.5855 13.488 29.0634 13.488C28.0892 13.488 26.8106 12.9546 26.2018 12.3027C25.1667 11.1767 24.3144 11.1175 13.6595 11.1175C0.812762 11.1175 0.325684 11.236 0.325684 15.2066C0.325684 19.2365 0.995418 19.4143 13.903 19.4143C24.6188 19.4143 25.3494 19.355 26.0191 18.229C26.5671 17.4586 27.4804 17.0438 28.759 17.0438C30.7682 17.0438 30.7682 17.0438 30.7682 20.0069V22.9701H27.9066C24.0708 23.0293 20.3568 24.6887 18.2259 27.474C16.6429 29.489 16.4602 30.2001 16.1558 35.6523L15.8513 41.6379L11.5285 41.9342C6.77949 42.2898 4.58763 43.3565 2.7002 46.2604C1.60427 48.0383 1.54338 49.105 1.66515 64.2763C1.84781 79.4476 1.90869 80.4551 3.12639 82.0552C3.79613 82.9441 5.31825 84.1886 6.47506 84.722L8.60604 85.7887L5.74445 109.612C3.85701 125.791 3.12639 133.732 3.4917 134.207C4.28321 135.214 6.10976 135.214 6.84037 134.266C7.20568 133.851 8.60604 123.48 10.0064 111.272C13.1115 84.3072 12.868 85.7887 14.5728 85.7887C15.6078 85.7887 16.034 86.3221 16.6429 88.3963C17.069 90.0557 18.1041 91.5965 19.5653 92.9003L21.8181 94.7967L22.7922 114.176C23.3402 124.784 24.0099 133.851 24.2535 134.207C24.9232 135.273 27.5413 135.155 27.9066 134.088C28.1501 133.614 27.9066 126.088 27.4195 117.376C26.9324 108.664 26.5062 100.249 26.5062 98.6488V95.8634H37.0393C46.4765 95.8634 47.7551 95.7449 49.886 94.6189C51.1646 93.967 52.2606 93.4929 52.3823 93.6115C52.5041 93.73 57.7402 103.094 64.0113 114.413C74.788 133.792 75.5186 135.036 76.9798 134.858C78.0758 134.74 78.6237 134.266 78.7455 133.436C78.8673 132.429 65.5335 107.538 53.1129 85.6702L51.8952 83.4775L54.5133 80.6329C57.314 77.5512 60.6018 71.5064 60.6018 69.3137C60.6018 68.6025 60.9062 68.0099 61.2715 68.0099C62.0021 68.0099 61.7586 75.0622 60.9062 81.344L60.6018 83.7145L82.3986 109.198C99.6291 129.347 104.561 134.74 105.778 134.858C108.396 135.155 108.579 133.081 106.205 130.177L104.195 127.747L105.839 121.287C106.753 117.731 107.301 114.472 107.118 113.939C106.631 112.694 104.013 112.813 103.343 114.057C103.039 114.65 102.43 116.605 102.004 118.383C101.577 120.161 101.029 121.998 100.786 122.472C100.481 123.065 97.1936 119.628 89.8266 110.916C84.0425 104.101 78.7455 97.9376 78.0758 97.2265L76.919 95.9227L79.2326 94.9745C82.0942 93.8485 85.8082 90.4113 86.8432 88.0407C87.5129 86.4406 87.7565 86.3221 89.7048 86.6777C93.9059 87.4481 103.039 90.6483 108.518 93.3151C114.363 96.1005 120.269 100.723 121.852 103.627C122.339 104.575 123.435 108.546 124.227 112.457C127.149 126.384 129.524 134.444 131.046 135.392C132.324 136.221 132.629 136.221 134.029 135.273C135.916 134.088 135.916 134.503 132.872 122.828C131.655 118.265 130.254 112.101 129.645 109.198C128.489 102.856 127.21 100.249 123.435 96.3375C118.077 90.7668 108.153 85.7887 94.3929 81.8181C85.5037 79.2698 84.9558 79.0328 84.9558 77.1956C84.9558 75.1807 87.3912 72.6324 91.8358 70.1433C96.8892 67.2395 100.786 63.3281 106.448 55.3869C114.302 44.4232 118.443 34.9412 118.93 26.7629C119.234 20.8959 118.077 16.7474 115.216 14.0214C111.502 10.5248 105.596 5.84306 102.856 4.30223C96.0977 0.450134 86.1735 -1.03143 79.4761 0.746445ZM48.0595 30.1409C49.5816 31.2669 49.6425 31.6224 49.6425 36.6598C49.6425 40.4526 49.4599 41.9342 48.9119 41.9342C48.4857 41.9342 46.5983 41.3416 44.7717 40.6304C40.0836 38.8525 31.8032 38.8525 27.1151 40.6304C25.2885 41.3416 23.4011 41.9342 23.0358 41.9342C22.4269 41.9342 22.2443 40.5119 22.2443 36.8968C22.2443 32.2743 22.366 31.6817 23.7664 30.3779C25.2276 28.8963 25.4103 28.8963 35.8216 28.8963C45.6241 28.8963 46.5374 29.0149 48.0595 30.1409ZM100.542 30.4372C101.943 32.4521 103.647 38.6155 104.135 43.238C104.5 46.9123 104.439 47.0308 101.638 51.7126C98.2896 57.2833 91.6531 63.98 87.8783 65.6394C83.8598 67.4172 78.1367 67.2395 73.9356 65.1653L70.6478 63.5652L70.3434 55.3869L70.039 47.2679H74.1182C77.8322 47.2679 78.4411 47.0901 80.2067 45.5492C82.1551 43.8899 82.216 43.6528 82.216 39.4451C82.216 37.0746 81.9724 34.6449 81.668 34.0522C81.2418 33.1633 81.4853 33.0447 83.4945 33.0447C86.1735 33.0447 93.297 31.3261 96.5239 29.9038C99.3855 28.6593 99.3855 28.6593 100.542 30.4372ZM76.3101 39.0896L76.4928 41.3416H66.1423H55.731V39.3859C55.731 38.2599 55.9137 37.1932 56.1572 36.9561C56.4007 36.7783 60.9671 36.6598 66.325 36.7191L76.1275 36.8968L76.3101 39.0896ZM44.4064 46.9123C50.6167 49.8754 54.5133 55.5647 55.0004 62.3799C55.3048 67.2987 54.5742 70.3211 52.1388 74.0547C48.4857 79.6254 40.388 83.4182 33.9951 82.5886C27.4804 81.7589 21.331 77.4327 18.2867 71.5657C16.8864 69.0173 16.3993 62.0243 17.3126 58.7056C18.165 55.5647 21.331 51.1199 24.1926 48.868C29.6722 44.601 37.8917 43.8306 44.4064 46.9123ZM13.4768 52.6608C11.0414 57.4018 10.9806 57.5203 10.9806 63.8022C10.9806 69.4322 11.1632 70.4397 12.7462 73.7584C13.7204 75.8326 14.8772 77.7883 15.3034 78.1438C15.7905 78.4994 16.1558 79.0328 16.1558 79.3291C16.1558 80.1588 9.21489 79.981 8.3625 79.1513C7.32745 78.1438 7.32745 49.5791 8.3625 48.5716C8.78869 48.1568 10.6761 47.8605 12.5636 47.8605H16.034L13.4768 52.6608ZM63.5243 48.5716C64.0113 49.0457 64.2549 51.2385 64.2549 54.6165V60.0094L62.9763 57.9352C62.2457 56.8092 60.9671 55.0313 60.0538 54.0831C59.0797 53.0756 57.7402 51.2977 57.0096 50.0532L55.6092 47.8605H59.2014C61.2106 47.8605 63.0981 48.1568 63.5243 48.5716ZM75.9448 72.099L79.4761 72.988L79.1108 76.0696C78.6846 79.5069 79.3544 81.2255 82.0333 83.4182L83.799 84.8998L82.0333 87.3296C80.2068 89.7594 76.9799 91.715 74.7271 91.715C73.6921 91.715 67.2991 85.4332 67.2991 84.4257C67.2991 84.1886 67.9689 83.0627 68.8213 81.8774C70.0998 79.981 70.3434 79.0328 70.3434 75.0029C70.3434 70.6767 70.4652 70.3211 71.4393 70.6767C71.9873 70.973 74.0574 71.5657 75.9448 72.099ZM27.7239 87.0333C32.3512 88.8112 39.5356 88.8112 44.4673 87.0925C46.4156 86.3814 48.1204 85.7887 48.1813 85.7887C48.2421 85.7887 48.4857 86.2036 48.6683 86.737C48.9119 87.3296 48.6075 88.2185 48.0595 88.8112C47.1462 89.8186 45.9894 89.9371 36.2478 89.9371C26.2627 89.9371 25.3494 89.8186 23.8273 88.6926C22.0007 87.3296 21.7572 85.7887 23.3402 85.7887C23.8882 85.7887 25.8974 86.3814 27.7239 87.0333Z" fill="#2C3365"/>
<path d="M25.2888 32.7485C24.6191 33.5189 24.6191 33.8153 25.4106 34.5857C26.6283 35.7709 28.4548 35.0005 28.2113 33.4004C27.9678 31.8596 26.3847 31.504 25.2888 32.7485Z" fill="#FD6B60"/>
<path d="M31.1943 32.2151C30.4028 32.9855 30.7681 34.7041 31.8031 35.0597C33.0817 35.5338 33.995 34.7041 33.6905 33.2818C33.5079 32.1558 31.9249 31.5039 31.1943 32.2151Z" fill="#FD6B60"/>
<path d="M44.1626 32.8077C43.4929 33.5189 43.5537 33.8745 44.3452 34.7041C45.3194 35.5931 45.4412 35.5931 46.3544 34.7041C47.5113 33.6374 47.0851 31.8595 45.8065 31.8595C45.3194 31.8595 44.5888 32.2744 44.1626 32.8077Z" fill="#FD6B60"/>
<path d="M31.4986 51.594C28.3326 52.7199 25.2274 55.5053 23.9488 58.4092C22.1223 62.3798 22.6094 67.7135 25.0448 71.0915C30.3418 78.4993 41.5446 78.4993 46.8416 71.1507C49.1552 67.8913 49.7032 62.7946 48.1202 58.824C45.7457 52.6607 38.0133 49.342 31.4986 51.594Z" fill="#FD6B60"/>
</svg>
