<svg width="137" height="136" viewBox="0 0 137 136" fill="none" xmlns="http://www.w3.org/2000/svg">
<g clip-path="url(#clip0)">
<path d="M85.1436 103.509C82.5982 103.509 80.9014 102.661 78.3561 101.812L68.1748 97.5703L57.9936 101.812C56.2967 102.661 53.7514 103.509 51.2061 103.509C49.5092 103.509 48.6607 103.509 46.9639 102.661L42.7217 135.75L68.1748 118.781L93.6279 135.75L88.5373 102.661C87.6889 103.509 85.992 103.509 85.1436 103.509Z" fill="#2C3365"/>
<path d="M109.749 50.0578C108.9 48.3609 108.9 45.8156 109.749 44.1188C110.597 42.4219 114.839 33.9375 114.839 33.9375C116.536 30.5438 114.839 26.3016 110.597 24.6047C110.597 24.6047 101.264 21.2109 99.5674 20.3625C97.8705 19.5141 96.1737 17.8172 95.3252 16.1203C94.4768 14.4234 91.083 5.09063 91.083 5.09063C90.2346 1.69688 87.6893 0 85.144 0C85.144 0 83.0606 0.462008 81.7502 0.848438C81.7502 0.848438 71.7118 5.86593 70.7205 5.93906C69.7292 6.01219 69.1571 6.09409 68.1752 5.93906C67.1403 5.77565 65.6299 5.09063 65.6299 5.09063L54.6002 0.848438C54.6002 0.848438 52.0549 0 51.2065 0C48.6612 0 46.1158 1.69687 44.419 4.24219L40.1768 16.1203C40.1768 17.8172 38.4799 19.5141 36.783 20.3625L24.9049 24.6047C21.5112 25.4531 19.8143 29.6953 21.5112 33.9375L26.6018 44.9672C27.4502 46.6641 27.4502 49.2094 26.6018 50.9063L21.5112 61.0875C19.8143 64.4813 21.5112 68.7234 25.7533 70.4203L36.783 74.6625C38.4799 75.5109 40.1768 77.2078 41.0252 78.9047L45.2674 89.9344C46.1158 93.3281 48.6612 95.025 51.2065 95.025L53.7518 94.1766L64.7815 89.0859C64.7815 89.0859 66.279 88.2375 67.3268 88.2375C68.3746 88.2375 69.8721 89.0859 69.8721 89.0859L80.9018 94.1766C80.9018 94.1766 82.5987 95.025 83.4471 95.025C85.9924 95.025 88.5377 93.3281 90.2346 90.7828C91.9315 88.2375 93.6283 81.45 94.4768 79.7531C95.3252 78.0563 97.0221 76.3594 98.719 75.5109C100.416 74.6625 109.749 71.2687 109.749 71.2687C113.142 69.5719 115.688 65.3297 113.991 61.9359C113.991 61.9359 110.597 51.7547 109.749 50.0578ZM68.1752 81.45C49.5096 81.45 34.2377 66.1781 34.2377 47.5125C34.2377 28.8469 49.5096 13.575 68.1752 13.575C86.8408 13.575 102.113 28.8469 102.113 47.5125C102.113 66.1781 86.8408 81.45 68.1752 81.45Z" fill="#2C3365"/>
<path d="M93.6279 47.5103C93.6279 54.2608 90.9463 60.7349 86.1729 65.5083C81.3995 70.2817 74.9254 72.9634 68.1748 72.9634C61.4242 72.9634 54.9501 70.2817 50.1767 65.5083C45.4033 60.7349 42.7217 54.2608 42.7217 47.5103C42.7217 40.7597 45.4033 34.2856 50.1767 29.5122C54.9501 24.7388 61.4242 22.0571 68.1748 22.0571C74.9254 22.0571 81.3995 24.7388 86.1729 29.5122C90.9463 34.2856 93.6279 40.7597 93.6279 47.5103Z" fill="#FD6B60"/>
<path d="M67.7026 28.5087C67.8582 28.0609 68.4915 28.0609 68.6471 28.5087L73.1673 41.5126C73.2359 41.7102 73.4203 41.8441 73.6294 41.8484L87.3937 42.1289C87.8676 42.1385 88.0633 42.7408 87.6855 43.0272L76.7149 51.3446C76.5482 51.4709 76.4778 51.6876 76.5384 51.8878L80.525 65.0651C80.6623 65.5188 80.15 65.891 79.7608 65.6203L68.4604 57.7568C68.2888 57.6373 68.0609 57.6373 67.8892 57.7568L56.5888 65.6203C56.1997 65.891 55.6874 65.5188 55.8247 65.0651L59.8113 51.8878C59.8719 51.6876 59.8015 51.4709 59.6348 51.3446L48.6641 43.0272C48.2864 42.7408 48.4821 42.1385 48.956 42.1289L62.7203 41.8484C62.9294 41.8441 63.1137 41.7102 63.1824 41.5126L67.7026 28.5087Z" fill="#2C3365"/>
<path d="M86.4726 71.6929L85.7894 72.3761L86.4486 73.0824L102.286 90.0511L102.992 90.8078L103.724 90.0759L130.874 62.9259L131.529 62.2711L130.926 61.568L124.139 53.6493L123.436 52.8294L122.673 53.5929L103.017 73.2483L94.6743 64.9054L93.9672 64.1983L93.2601 64.9054L86.4726 71.6929Z" fill="#2C3365" stroke="white" stroke-width="2"/>
</g>
<defs>
<clipPath id="clip0">
<rect width="135.75" height="135.75" fill="white" transform="translate(0.299805)"/>
</clipPath>
</defs>
</svg>
