<svg width="56" height="56" viewBox="0 0 56 56" fill="none" xmlns="http://www.w3.org/2000/svg">
<path d="M55.5 28C55.5 43.1878 43.1878 55.5 28 55.5C12.8122 55.5 0.5 43.1878 0.5 28C0.5 12.8122 12.8122 0.5 28 0.5C43.1878 0.5 55.5 12.8122 55.5 28Z" fill="#FD6B60" stroke="#FD6B60"/>
<path d="M40.8271 34.4521L37.2979 30.9229C37.1623 30.7862 37.0011 30.6777 36.8233 30.6037C36.6456 30.5297 36.455 30.4915 36.2625 30.4915C36.07 30.4915 35.8794 30.5297 35.7017 30.6037C35.5239 30.6777 35.3627 30.7862 35.2271 30.9229L30.0062 36.1438C29.8711 36.28 29.7642 36.4416 29.6916 36.6193C29.619 36.797 29.5822 36.9872 29.5833 37.1792V40.7083C29.5833 41.0951 29.737 41.466 30.0105 41.7395C30.284 42.013 30.6549 42.1667 31.0417 42.1667H34.5708C34.7628 42.1678 34.953 42.131 35.1307 42.0584C35.3084 41.9858 35.47 41.8789 35.6062 41.7437L40.8271 36.5229C40.9638 36.3873 41.0723 36.2261 41.1463 36.0483C41.2203 35.8706 41.2585 35.68 41.2585 35.4875C41.2585 35.295 41.2203 35.1044 41.1463 34.9267C41.0723 34.7489 40.9638 34.5877 40.8271 34.4521ZM33.9583 39.25H32.5V37.7917L36.2625 34.0292L37.7208 35.4875L33.9583 39.25ZM25.2083 39.25H19.375C18.9882 39.25 18.6173 39.0964 18.3438 38.8229C18.0703 38.5494 17.9167 38.1784 17.9167 37.7917V17.375C17.9167 16.9882 18.0703 16.6173 18.3438 16.3438C18.6173 16.0703 18.9882 15.9167 19.375 15.9167H26.6667V20.2917C26.6667 21.452 27.1276 22.5648 27.9481 23.3853C28.7685 24.2057 29.8813 24.6667 31.0417 24.6667H35.4167V26.125C35.4167 26.5118 35.5703 26.8827 35.8438 27.1562C36.1173 27.4297 36.4882 27.5833 36.875 27.5833C37.2618 27.5833 37.6327 27.4297 37.9062 27.1562C38.1797 26.8827 38.3333 26.5118 38.3333 26.125V23.2083V23.1208C38.3181 22.9869 38.2888 22.8549 38.2458 22.7271V22.5958C38.1757 22.4459 38.0822 22.3081 37.9687 22.1875L29.2187 13.4375C29.0982 13.3241 28.9604 13.2305 28.8104 13.1604C28.7669 13.1542 28.7227 13.1542 28.6792 13.1604L28.2125 13H19.375C18.2147 13 17.1019 13.4609 16.2814 14.2814C15.4609 15.1019 15 16.2147 15 17.375V37.7917C15 38.952 15.4609 40.0648 16.2814 40.8853C17.1019 41.7057 18.2147 42.1667 19.375 42.1667H25.2083C25.5951 42.1667 25.966 42.013 26.2395 41.7395C26.513 41.466 26.6667 41.0951 26.6667 40.7083C26.6667 40.3216 26.513 39.9506 26.2395 39.6771C25.966 39.4036 25.5951 39.25 25.2083 39.25ZM29.5833 17.9729L33.3604 21.75H31.0417C30.6549 21.75 30.284 21.5964 30.0105 21.3229C29.737 21.0494 29.5833 20.6784 29.5833 20.2917V17.9729ZM22.2917 30.5H31.0417C31.4284 30.5 31.7994 30.3464 32.0729 30.0729C32.3464 29.7994 32.5 29.4284 32.5 29.0417C32.5 28.6549 32.3464 28.284 32.0729 28.0105C31.7994 27.737 31.4284 27.5833 31.0417 27.5833H22.2917C21.9049 27.5833 21.534 27.737 21.2605 28.0105C20.987 28.284 20.8333 28.6549 20.8333 29.0417C20.8333 29.4284 20.987 29.7994 21.2605 30.0729C21.534 30.3464 21.9049 30.5 22.2917 30.5ZM22.2917 24.6667H23.75C24.1368 24.6667 24.5077 24.513 24.7812 24.2395C25.0547 23.966 25.2083 23.5951 25.2083 23.2083C25.2083 22.8216 25.0547 22.4506 24.7812 22.1771C24.5077 21.9036 24.1368 21.75 23.75 21.75H22.2917C21.9049 21.75 21.534 21.9036 21.2605 22.1771C20.987 22.4506 20.8333 22.8216 20.8333 23.2083C20.8333 23.5951 20.987 23.966 21.2605 24.2395C21.534 24.513 21.9049 24.6667 22.2917 24.6667ZM25.2083 33.4167H22.2917C21.9049 33.4167 21.534 33.5703 21.2605 33.8438C20.987 34.1173 20.8333 34.4882 20.8333 34.875C20.8333 35.2618 20.987 35.6327 21.2605 35.9062C21.534 36.1797 21.9049 36.3333 22.2917 36.3333H25.2083C25.5951 36.3333 25.966 36.1797 26.2395 35.9062C26.513 35.6327 26.6667 35.2618 26.6667 34.875C26.6667 34.4882 26.513 34.1173 26.2395 33.8438C25.966 33.5703 25.5951 33.4167 25.2083 33.4167Z" fill="#2C3365"/>
</svg>
