<svg width="136" height="136" viewBox="0 0 136 136" fill="none" xmlns="http://www.w3.org/2000/svg">
<path d="M126.109 97.5079C123.482 95.2828 119.386 95.4284 116.626 97.5079L96.0584 112.875C93.5336 114.768 90.3913 115.795 87.1545 115.787H60.828C59.8834 115.787 58.9775 115.436 58.3096 114.812C57.6417 114.188 57.2665 113.342 57.2665 112.46C57.2665 111.577 57.6417 110.731 58.3096 110.107C58.9775 109.483 59.8834 109.132 60.828 109.132H78.2551C81.7944 109.132 85.091 106.866 85.6564 103.601C85.7261 103.226 85.7604 102.846 85.7588 102.465C85.7553 100.703 85.0033 99.0134 83.6678 97.7681C82.3323 96.5229 80.5226 95.8235 78.6357 95.8235H43.0203C37.0138 95.825 31.1903 97.7551 26.5259 101.291L16.1751 109.132H3.84328C2.8987 109.132 1.99281 109.483 1.32489 110.107C0.656971 110.731 0.281738 111.577 0.281738 112.46L0.281738 132.423C0.281738 133.305 0.656971 134.151 1.32489 134.775C1.99281 135.399 2.8987 135.75 3.84328 135.75H83.259C86.4948 135.752 89.635 134.726 92.1629 132.839L125.826 107.677C126.636 107.072 127.295 106.309 127.756 105.441C128.217 104.574 128.471 103.622 128.498 102.654C128.525 101.686 128.325 100.724 127.913 99.8346C127.501 98.9458 126.884 98.1517 126.109 97.5079Z" fill="#2C3365"/>
<path d="M104.994 42.5882C104.994 66.1091 85.8585 85.1765 62.2541 85.1765C38.6498 85.1765 19.5146 66.1091 19.5146 42.5882C19.5146 19.0674 38.6498 0 62.2541 0C85.8585 0 104.994 19.0674 104.994 42.5882Z" fill="#2C3365"/>
<path d="M64.3796 19.375V18.375H63.3796H60.9691H59.9691V19.375V23.0273C56.4444 23.2839 53.4128 24.2464 50.9179 25.9589C47.665 28.1584 46.0189 31.2987 46.0189 35.2689C46.0189 38.5876 47.2725 41.2874 49.7855 43.2607C51.5734 44.6709 54.1599 45.8227 57.4655 46.7589L57.4701 46.7602C58.4869 47.0429 59.3207 47.2701 59.9691 47.4408V53.5069C58.9594 53.2629 58.2181 52.8536 57.6906 52.3232C56.9935 51.622 56.5564 50.5944 56.48 49.1181L56.431 48.1697H55.4813H45.9419H44.9338L44.9419 49.1778C44.9783 53.6661 46.5945 57.215 49.8521 59.6776L49.8565 59.6809C52.4666 61.6315 55.8627 62.6964 59.9691 62.9519V66.5968V67.5968H60.9691H63.3796H64.3796V66.5968V62.9426C68.2458 62.6644 71.461 61.6729 73.9586 59.9003C77.1951 57.6124 78.7913 54.2576 78.7913 49.9874C78.7913 46.7044 77.5568 44.0111 75.0883 42.0054L75.0827 42.0008L75.077 41.9964C73.2908 40.5873 70.723 39.435 67.45 38.4982L67.4403 38.4954L67.4304 38.4928C66.1939 38.1659 65.1763 37.9028 64.3796 37.704V32.9356C64.8562 33.1662 65.208 33.4398 65.4604 33.7402C65.882 34.242 66.1159 34.9251 66.0733 35.8891L66.027 36.9333H67.0723H76.6117H77.621L77.6117 35.9241C77.575 31.9399 76.109 28.7158 73.187 26.3641L73.1783 26.3571L73.1695 26.3503C70.7956 24.5254 67.8489 23.4591 64.3796 23.1051V19.375ZM64.3796 53.5259V48.7029C65.2817 49.0365 65.9527 49.3921 66.4207 49.7553C67.0643 50.2549 67.2519 50.7046 67.2519 51.1118C67.2519 51.8908 66.979 52.4084 66.4475 52.7931C66.0054 53.1131 65.3351 53.3741 64.3796 53.5259ZM58.2627 33.0141C58.6212 32.7441 59.1704 32.5249 59.9691 32.4124V36.5075C59.2132 36.2292 58.6479 35.9394 58.2506 35.6494C57.6705 35.226 57.5584 34.8917 57.5584 34.6557C57.5584 33.8373 57.8222 33.3459 58.2627 33.0141Z" fill="#FD6B60" stroke="white" stroke-width="2"/>
<path d="M108.299 70.2671H108.299C107.391 70.2697 106.492 70.0926 105.653 69.7461C104.814 69.3997 104.052 68.8908 103.412 68.2489C103.412 68.2487 103.412 68.2485 103.411 68.2484L94.8649 59.7322L108.299 70.2671ZM108.299 70.2671C109.53 70.2633 110.738 69.9335 111.799 69.3114C112.86 68.6893 113.736 67.7971 114.337 66.7262L114.338 66.7249M108.299 70.2671L114.338 66.7249M114.338 66.7249L125.022 47.5619L114.338 66.7249ZM125.628 42.3187C125.253 41.0083 124.497 39.8384 123.454 38.957C122.412 38.0754 121.13 37.5221 119.772 37.3668C118.414 37.2115 117.04 37.4612 115.825 38.0844C114.609 38.7077 113.606 39.6765 112.943 40.8685L106.706 52.0519L104.635 49.9884C102.019 47.3814 97.4809 47.3814 94.8646 49.9884C93.5589 51.2895 92.8391 53.0224 92.8391 54.8612C92.8391 56.6998 93.5588 58.4328 94.8646 59.7319L125.148 42.4574M125.628 42.3187C125.628 42.3191 125.629 42.3195 125.629 42.3199L125.148 42.4574M125.628 42.3187C125.628 42.3185 125.628 42.3182 125.628 42.318L125.148 42.4574M125.628 42.3187C125.881 43.189 125.957 44.1007 125.853 45.0007C125.749 45.9006 125.467 46.7709 125.022 47.561L125.023 47.5602L124.586 47.3167C124.998 46.5843 125.26 45.7775 125.357 44.9433C125.453 44.109 125.382 43.264 125.148 42.4574M99.75 53.2318L99.7513 53.2318C99.9665 53.2313 100.18 53.2732 100.379 53.3552C100.577 53.4372 100.758 53.5575 100.909 53.7092L100.91 53.7099L107.453 60.2301L107.921 60.6964L108.243 60.1195L117.552 43.4266C117.768 43.055 118.121 42.7809 118.536 42.6626C118.952 42.5441 119.398 42.591 119.78 42.7932C119.968 42.8961 120.133 43.0349 120.266 43.2017C120.4 43.3692 120.499 43.5614 120.558 43.7672L120.558 43.7694C120.617 43.9744 120.635 44.1891 120.611 44.4009C120.586 44.6128 120.519 44.8178 120.415 45.004L120.414 45.0056L109.73 64.1689C109.73 64.169 109.73 64.169 109.73 64.1691C109.606 64.3889 109.433 64.5774 109.224 64.7198C109.015 64.8622 108.776 64.9546 108.525 64.9895C108.274 65.0245 108.018 65.0011 107.777 64.9212C107.537 64.8414 107.319 64.7073 107.139 64.5297C107.139 64.5295 107.139 64.5294 107.139 64.5292L98.5921 56.0125C98.2819 55.7034 98.1131 55.2983 98.1131 54.8612C98.1131 54.4241 98.2819 54.019 98.5921 53.7099C98.9024 53.4007 99.3097 53.2318 99.75 53.2318Z" fill="#FD6B60" stroke="white"/>
</svg>
