<svg width="175" height="180" viewBox="0 0 175 180" fill="none" xmlns="http://www.w3.org/2000/svg">
<path d="M77.9268 52.8213V95.5341L107.82 116.179L112.908 107.636L87.4672 90.551V52.8213H77.9268Z" fill="#FD6B60"/>
<path d="M163.456 102.777C164.789 97.0879 165.5 91.1324 165.5 84.9991C165.5 40.5552 129.945 5 85.5003 5C41.0561 5 5.50069 40.5552 5.50069 84.9991C5.45392 96.2673 7.798 107.417 12.3781 117.713C16.9583 128.008 23.6703 137.215 32.071 144.725C40.4717 152.235 50.37 157.878 61.1123 161.281C76 165.996 94.3892 164.465 94.3892 164.465" stroke="#FD6B60" stroke-width="10"/>
<path d="M154.854 154.527L173.693 135.703C174.328 134.962 174.66 134.009 174.622 133.034C174.584 132.059 174.18 131.134 173.49 130.444C172.799 129.755 171.874 129.35 170.898 129.313C169.923 129.275 168.969 129.607 168.227 130.241L149.388 148.872L130.433 129.931C129.691 129.297 128.738 128.965 127.762 129.003C126.786 129.041 125.861 129.445 125.171 130.134C124.48 130.824 124.076 131.749 124.038 132.724C124 133.699 124.332 134.652 124.967 135.393L143.884 154.527L125.355 172.81C124.949 173.157 124.62 173.584 124.387 174.065C124.154 174.545 124.024 175.069 124.003 175.602C123.982 176.136 124.072 176.668 124.267 177.165C124.462 177.662 124.758 178.113 125.135 178.491C125.513 178.868 125.965 179.163 126.462 179.358C126.96 179.553 127.492 179.643 128.026 179.622C128.56 179.602 129.084 179.471 129.565 179.238C130.045 179.006 130.473 178.677 130.821 178.271L149.311 159.795L167.685 178.155C168.426 178.789 169.38 179.121 170.356 179.083C171.331 179.046 172.257 178.642 172.947 177.952C173.637 177.262 174.042 176.337 174.079 175.362C174.117 174.388 173.785 173.434 173.15 172.693L154.854 154.527Z" fill="white"/>
</svg>
