<svg width="56" height="56" viewBox="0 0 56 56" fill="none" xmlns="http://www.w3.org/2000/svg">
<g clip-path="url(#clip0)">
<path d="M56 28C56 43.1878 43.6878 55.5 28.5 55.5C13.3122 55.5 1 43.1878 1 28C1 12.8122 13.3122 0.5 28.5 0.5C43.6878 0.5 56 12.8122 56 28Z" fill="#FD6B60" stroke="#FD6B60"/>
<path d="M18.296 39.4276V36.8962L19.8436 37.1713C21.5698 37.5015 23.1769 36.3459 23.296 34.7499L23.6531 31.1729L25.3793 30.5125C25.9745 30.2924 26.2126 29.632 25.8555 29.0817L23.6531 25.6698C23.296 21.4874 20.7364 17.415 14.1293 17.415C7.34359 17.415 4.01025 22.0377 4.01025 26.7704C4.01025 28.8065 4.78406 30.5676 5.97454 32.0534C7.04597 33.4292 7.58168 35.0801 7.58168 36.7311V39.3726H18.296V39.4276Z" fill="#2C3365"/>
<path d="M38.8534 39.4276V36.8962L37.3057 37.1713C35.5793 37.5015 33.972 36.3459 33.8529 34.7499L33.4957 31.1729L31.7694 30.5125C31.1741 30.2924 30.936 29.632 31.2931 29.0817L33.4957 25.6698C33.8529 21.4874 36.4127 17.415 43.0205 17.415C49.8069 17.415 53.1406 22.0377 53.1406 26.7704C53.1406 28.8065 52.3667 30.5676 51.1761 32.0534C50.1046 33.4292 49.5688 35.0801 49.5688 36.7311V39.3726H38.8534V39.4276Z" fill="#2C3365"/>
</g>
<defs>
<clipPath id="clip0">
<rect width="56" height="56" fill="white"/>
</clipPath>
</defs>
</svg>
