<svg width="56" height="56" viewBox="0 0 56 56" fill="none" xmlns="http://www.w3.org/2000/svg">
<path d="M55.5 28C55.5 43.1878 43.1878 55.5 28 55.5C12.8122 55.5 0.5 43.1878 0.5 28C0.5 12.8122 12.8122 0.5 28 0.5C43.1878 0.5 55.5 12.8122 55.5 28Z" fill="#FD6B60" stroke="#FD6B60"/>
<path d="M33.9094 28.5345L47 22.4922V33.7137L33.9094 39.7561V28.5345Z" fill="#2C3365"/>
<path d="M19.51 33.7137L32.6005 39.7561V28.5345L19.51 22.4922V33.7137Z" fill="#2C3365"/>
<path d="M33.2549 15.5L47 21.0245L33.2549 27.671L19.7063 20.9381L33.2549 15.5Z" fill="#2C3365"/>
<path d="M32.8871 22.0598V21.8471H32.6744H31.6189H31.4062V22.0598C31.4062 22.7872 31.8426 23.4074 32.4618 23.6891V24.6986V24.9112H32.6744H33.73H33.9426V24.6986V23.8557H34.7855H34.9981V23.6431V22.0598C34.9981 21.0694 34.1926 20.2638 33.2022 20.2638C33.0288 20.2638 32.8871 20.122 32.8871 19.9486V19.6335H33.2022C33.3756 19.6335 33.5174 19.7753 33.5174 19.9486V20.1613H33.73H34.7855H34.9981V19.9486C34.9981 19.2212 34.5618 18.601 33.9426 18.3193V17.3098V17.0972H33.73H32.6744H32.4618V17.3098V18.1527H31.6189H31.4062V18.3653V19.9486C31.4062 20.939 32.2118 21.7446 33.2022 21.7446C33.3756 21.7446 33.5174 21.8864 33.5174 22.0598V22.3749H33.2022C33.0288 22.3749 32.8871 22.2331 32.8871 22.0598Z" fill="#2C3365" stroke="#FD6B60"/>
<mask id="mask0" mask-type="alpha" maskUnits="userSpaceOnUse" x="9" y="17" width="13" height="12">
<path d="M14.5647 17.6826C14.5647 17.3701 14.8181 17.1167 15.1307 17.1167H21.0472C21.3598 17.1167 21.6132 17.3701 21.6132 17.6826C21.6132 17.9952 21.3598 18.2486 21.0472 18.2486H15.1307C14.8181 18.2486 14.5647 17.9952 14.5647 17.6826Z" fill="#2C3365"/>
<path d="M11.0403 21.2403C11.0403 20.9277 11.2937 20.6743 11.6063 20.6743H17.5228C17.8354 20.6743 18.0887 20.9277 18.0887 21.2403C18.0887 21.5529 17.8354 21.8063 17.5228 21.8063H11.6063C11.2937 21.8063 11.0403 21.5529 11.0403 21.2403Z" fill="#2C3365"/>
<path d="M11.0403 28.3551C11.0403 28.0425 11.2937 27.7891 11.6063 27.7891H17.5228C17.8354 27.7891 18.0887 28.0425 18.0887 28.3551C18.0887 28.6676 17.8354 28.921 17.5228 28.921H11.6063C11.2937 28.921 11.0403 28.6676 11.0403 28.3551Z" fill="#2C3365"/>
<path d="M9 24.7974C9 24.4848 9.2534 24.2314 9.56595 24.2314H15.4825C15.7951 24.2314 16.0485 24.4848 16.0485 24.7974C16.0485 25.11 15.7951 25.3634 15.4825 25.3634H9.56595C9.2534 25.3634 9 25.11 9 24.7974Z" fill="#2C3365"/>
</mask>
<g mask="url(#mask0)">
<path d="M15.1304 20.093H21.0469V14.1396H15.1304V20.093ZM21.0469 15.2716H15.1304V21.2249H21.0469V15.2716ZM15.1304 15.2716C16.4618 15.2716 17.5411 16.3509 17.5411 17.6823H11.5878C11.5878 19.6388 13.1738 21.2249 15.1304 21.2249V15.2716ZM18.6362 17.6823C18.6362 16.3509 19.7155 15.2716 21.0469 15.2716V21.2249C23.0034 21.2249 24.5895 19.6388 24.5895 17.6823H18.6362ZM21.0469 20.093C19.7155 20.093 18.6362 19.0136 18.6362 17.6823H24.5895C24.5895 15.7257 23.0034 14.1396 21.0469 14.1396V20.093ZM15.1304 14.1396C13.1738 14.1396 11.5878 15.7257 11.5878 17.6823H17.5411C17.5411 19.0136 16.4618 20.093 15.1304 20.093V14.1396ZM11.6062 23.6504H17.5227V17.6971H11.6062V23.6504ZM17.5227 18.8291H11.6062V24.7824H17.5227V18.8291ZM11.6062 18.8291C12.9375 18.8291 14.0168 19.9084 14.0168 21.2398H8.06352C8.06352 23.1963 9.64961 24.7824 11.6062 24.7824V18.8291ZM15.112 21.2398C15.112 19.9084 16.1913 18.8291 17.5227 18.8291V24.7824C19.4792 24.7824 21.0653 23.1963 21.0653 21.2398H15.112ZM17.5227 23.6504C16.1913 23.6504 15.112 22.5712 15.112 21.2398H21.0653C21.0653 19.2833 19.4792 17.6971 17.5227 17.6971V23.6504ZM11.6062 17.6971C9.64961 17.6971 8.06352 19.2833 8.06352 21.2398H14.0168C14.0168 22.5712 12.9375 23.6504 11.6062 23.6504V17.6971ZM11.6062 30.7655H17.5227V24.8122H11.6062V30.7655ZM17.5227 25.9441H11.6062V31.8974H17.5227V25.9441ZM11.6062 25.9441C12.9375 25.9441 14.0168 27.0235 14.0168 28.3548H8.06352C8.06352 30.3114 9.64961 31.8974 11.6062 31.8974V25.9441ZM15.112 28.3548C15.112 27.0235 16.1913 25.9441 17.5227 25.9441V31.8974C19.4792 31.8974 21.0653 30.3114 21.0653 28.3548H15.112ZM17.5227 30.7655C16.1913 30.7655 15.112 29.6862 15.112 28.3548H21.0653C21.0653 26.3983 19.4792 24.8122 17.5227 24.8122V30.7655ZM11.6062 24.8122C9.64961 24.8122 8.06352 26.3983 8.06352 28.3548H14.0168C14.0168 29.6862 12.9375 30.7655 11.6062 30.7655V24.8122ZM9.5658 27.208H15.4823V21.2547H9.5658V27.208ZM15.4823 22.3866H9.5658V28.3399H15.4823V22.3866ZM9.5658 22.3866C10.8972 22.3866 11.9765 23.4659 11.9765 24.7973H6.02319C6.02319 26.7538 7.60928 28.3399 9.5658 28.3399V22.3866ZM13.0717 24.7973C13.0717 23.4659 14.151 22.3866 15.4823 22.3866V28.3399C17.4389 28.3399 19.025 26.7538 19.025 24.7973H13.0717ZM15.4823 27.208C14.151 27.208 13.0717 26.1287 13.0717 24.7973H19.025C19.025 22.8408 17.4389 21.2547 15.4823 21.2547V27.208ZM9.5658 21.2547C7.60928 21.2547 6.02319 22.8408 6.02319 24.7973H11.9765C11.9765 26.1287 10.8972 27.208 9.5658 27.208V21.2547Z" fill="#2C3365"/>
</g>
</svg>
