<svg width="180" height="180" viewBox="0 0 180 180" fill="none" xmlns="http://www.w3.org/2000/svg">
<g clip-path="url(#clip0)">
<path d="M58.5395 113L49.3745 97.205H42.5495V113H33.5795V67.5H51.7795C55.9828 67.5 59.5578 68.9733 62.5045 71.92C65.4512 74.8667 66.9245 78.42 66.9245 82.58C66.9245 85.3967 66.1228 88.0183 64.5195 90.445C62.9162 92.8283 60.7928 94.6267 58.1495 95.84L68.2245 113H58.5395ZM42.5495 75.885V89.34H51.7795C53.4695 89.34 54.9212 88.69 56.1345 87.39C57.3478 86.0467 57.9545 84.4433 57.9545 82.58C57.9545 80.7167 57.3478 79.135 56.1345 77.835C54.9212 76.535 53.4695 75.885 51.7795 75.885H42.5495ZM117.783 107.085C113.19 111.635 107.6 113.91 101.013 113.91C94.4268 113.91 88.8368 111.635 84.2434 107.085C79.6934 102.492 77.4184 96.88 77.4184 90.25C77.4184 83.62 79.6934 78.03 84.2434 73.48C88.8368 68.8867 94.4268 66.59 101.013 66.59C107.6 66.59 113.19 68.8867 117.783 73.48C122.377 78.03 124.673 83.62 124.673 90.25C124.673 96.88 122.377 102.492 117.783 107.085ZM90.5484 100.975C93.3651 103.748 96.8534 105.135 101.013 105.135C105.173 105.135 108.662 103.748 111.478 100.975C114.295 98.1583 115.703 94.5833 115.703 90.25C115.703 85.9167 114.295 82.3417 111.478 79.525C108.662 76.7083 105.173 75.3 101.013 75.3C96.8534 75.3 93.3651 76.7083 90.5484 79.525C87.7318 82.3417 86.3234 85.9167 86.3234 90.25C86.3234 94.5833 87.7318 98.1583 90.5484 100.975ZM137.478 67.5H146.448V113H137.478V67.5Z" fill="white"/>
<path d="M149.12 131.675L36.9048 39.1198C20.2526 25.3814 12.9292 34.2824 29.5715 48.0129L141.786 140.571C158.44 154.301 165.769 145.401 149.12 131.675Z" fill="#FD6B60"/>
<path d="M89.9604 -0.00012207C40.3591 -0.00012207 -0.000244141 40.3705 -0.000244141 89.9661C-0.000244141 139.57 40.3591 179.921 89.9604 179.921C139.559 179.921 179.915 139.567 179.915 89.9661C179.918 40.3705 139.559 -0.00012207 89.9604 -0.00012207ZM89.9604 167.766C47.0613 167.766 12.1582 132.865 12.1582 89.9689C12.1582 47.0643 47.0613 12.1611 89.9604 12.1611C132.857 12.1611 167.757 47.0643 167.757 89.9689C167.757 132.865 132.857 167.766 89.9604 167.766Z" fill="#FD6B60"/>
</g>
<defs>
<clipPath id="clip0">
<rect width="180" height="180" fill="white"/>
</clipPath>
</defs>
</svg>
